%TF.GenerationSoftware,KiCad,Pcbnew,9.0.7*%
%TF.CreationDate,2026-07-21T23:10:04-05:00*%
%TF.ProjectId,PCB60hz_15,50434236-3068-47a5-9f31-352e6b696361,rev?*%
%TF.SameCoordinates,Original*%
%TF.FileFunction,Copper,L1,Top*%
%TF.FilePolarity,Positive*%
%FSLAX46Y46*%
G04 Gerber Fmt 4.6, Leading zero omitted, Abs format (unit mm)*
G04 Created by KiCad (PCBNEW 9.0.7) date 2026-07-21 23:10:04*
%MOMM*%
%LPD*%
G01*
G04 APERTURE LIST*
G04 Aperture macros list*
%AMRoundRect*
0 Rectangle with rounded corners*
0 $1 Rounding radius*
0 $2 $3 $4 $5 $6 $7 $8 $9 X,Y pos of 4 corners*
0 Add a 4 corners polygon primitive as box body*
4,1,4,$2,$3,$4,$5,$6,$7,$8,$9,$2,$3,0*
0 Add four circle primitives for the rounded corners*
1,1,$1+$1,$2,$3*
1,1,$1+$1,$4,$5*
1,1,$1+$1,$6,$7*
1,1,$1+$1,$8,$9*
0 Add four rect primitives between the rounded corners*
20,1,$1+$1,$2,$3,$4,$5,0*
20,1,$1+$1,$4,$5,$6,$7,0*
20,1,$1+$1,$6,$7,$8,$9,0*
20,1,$1+$1,$8,$9,$2,$3,0*%
G04 Aperture macros list end*
%TA.AperFunction,SMDPad,CuDef*%
%ADD10R,1.250000X0.600000*%
%TD*%
%TA.AperFunction,ComponentPad*%
%ADD11C,3.000000*%
%TD*%
%TA.AperFunction,ComponentPad*%
%ADD12C,4.500000*%
%TD*%
%TA.AperFunction,SMDPad,CuDef*%
%ADD13RoundRect,0.250000X-0.650000X1.000000X-0.650000X-1.000000X0.650000X-1.000000X0.650000X1.000000X0*%
%TD*%
%TA.AperFunction,SMDPad,CuDef*%
%ADD14RoundRect,0.250000X-0.337500X-0.475000X0.337500X-0.475000X0.337500X0.475000X-0.337500X0.475000X0*%
%TD*%
%TA.AperFunction,ComponentPad*%
%ADD15R,1.700000X1.700000*%
%TD*%
%TA.AperFunction,ComponentPad*%
%ADD16O,1.700000X1.700000*%
%TD*%
%TA.AperFunction,SMDPad,CuDef*%
%ADD17RoundRect,0.250000X0.650000X-1.000000X0.650000X1.000000X-0.650000X1.000000X-0.650000X-1.000000X0*%
%TD*%
%TA.AperFunction,SMDPad,CuDef*%
%ADD18RoundRect,0.250000X0.337500X0.475000X-0.337500X0.475000X-0.337500X-0.475000X0.337500X-0.475000X0*%
%TD*%
%TA.AperFunction,SMDPad,CuDef*%
%ADD19RoundRect,0.250000X-1.075000X0.400000X-1.075000X-0.400000X1.075000X-0.400000X1.075000X0.400000X0*%
%TD*%
%TA.AperFunction,ComponentPad*%
%ADD20C,1.500000*%
%TD*%
%TA.AperFunction,SMDPad,CuDef*%
%ADD21RoundRect,0.237500X-0.250000X-0.237500X0.250000X-0.237500X0.250000X0.237500X-0.250000X0.237500X0*%
%TD*%
%TA.AperFunction,ComponentPad*%
%ADD22R,2.000000X2.000000*%
%TD*%
%TA.AperFunction,ComponentPad*%
%ADD23C,2.000000*%
%TD*%
%TA.AperFunction,SMDPad,CuDef*%
%ADD24R,3.600000X3.400000*%
%TD*%
%TA.AperFunction,SMDPad,CuDef*%
%ADD25RoundRect,0.250000X1.000000X0.650000X-1.000000X0.650000X-1.000000X-0.650000X1.000000X-0.650000X0*%
%TD*%
%TA.AperFunction,ComponentPad*%
%ADD26R,1.600000X1.600000*%
%TD*%
%TA.AperFunction,ComponentPad*%
%ADD27C,1.600000*%
%TD*%
%TA.AperFunction,ComponentPad*%
%ADD28R,1.980000X1.980000*%
%TD*%
%TA.AperFunction,ComponentPad*%
%ADD29C,1.980000*%
%TD*%
%TA.AperFunction,ComponentPad*%
%ADD30C,2.025000*%
%TD*%
%TA.AperFunction,ComponentPad*%
%ADD31R,2.025000X2.025000*%
%TD*%
%TA.AperFunction,SMDPad,CuDef*%
%ADD32RoundRect,0.237500X-0.237500X0.250000X-0.237500X-0.250000X0.237500X-0.250000X0.237500X0.250000X0*%
%TD*%
%TA.AperFunction,Conductor*%
%ADD33C,0.600000*%
%TD*%
G04 APERTURE END LIST*
D10*
%TO.P,IC1,1,GND*%
%TO.N,GNDREF*%
X112750000Y-91310000D03*
%TO.P,IC1,2,SW*%
%TO.N,Net-(IC1-SW)*%
X112750000Y-92260000D03*
%TO.P,IC1,3,VIN*%
%TO.N,Net-(D3-K)*%
X112750000Y-93210000D03*
%TO.P,IC1,4,FB*%
%TO.N,Net-(IC1-FB)*%
X115250000Y-93210000D03*
%TO.P,IC1,5,EN*%
%TO.N,unconnected-(IC1-EN-Pad5)*%
X115250000Y-92260000D03*
%TO.P,IC1,6,BOOT*%
%TO.N,Net-(IC1-BOOT)*%
X115250000Y-91310000D03*
%TD*%
D11*
%TO.P,J1,1,1*%
%TO.N,Net-(T1-PRI_2)*%
X53690000Y-87730000D03*
%TO.P,J1,2,2*%
%TO.N,Net-(T1-PRI_1)*%
X53690000Y-79130000D03*
D12*
%TO.P,J1,MH1,MH1*%
%TO.N,unconnected-(J1-PadMH1)*%
X47190000Y-90930000D03*
%TO.P,J1,MH2,MH2*%
%TO.N,unconnected-(J1-PadMH2)*%
X47190000Y-77930000D03*
%TD*%
D13*
%TO.P,D4,1,K*%
%TO.N,Net-(D1-A)*%
X94890000Y-78180000D03*
%TO.P,D4,2,A*%
%TO.N,Net-(D2-A)*%
X94890000Y-82180000D03*
%TD*%
D14*
%TO.P,C8,1*%
%TO.N,Net-(IC3-OUT)*%
X121815000Y-83980000D03*
%TO.P,C8,2*%
%TO.N,GNDREF*%
X123890000Y-83980000D03*
%TD*%
D15*
%TO.P,J4,1,Pin_1*%
%TO.N,Net-(J4-Pin_1)*%
X122480000Y-104570000D03*
D16*
%TO.P,J4,2,Pin_2*%
%TO.N,GNDREF*%
X125020000Y-104570000D03*
%TD*%
D17*
%TO.P,D2,1,K*%
%TO.N,Net-(D2-K)*%
X94850000Y-89630000D03*
%TO.P,D2,2,A*%
%TO.N,Net-(D2-A)*%
X94850000Y-85630000D03*
%TD*%
D18*
%TO.P,C7,1*%
%TO.N,GNDREF*%
X124155000Y-66270000D03*
%TO.P,C7,2*%
%TO.N,Net-(IC2-OUTPUT)*%
X122080000Y-66270000D03*
%TD*%
D19*
%TO.P,R4,1*%
%TO.N,Net-(D1-K)*%
X100140000Y-82430000D03*
%TO.P,R4,2*%
%TO.N,Net-(D3-K)*%
X100140000Y-85530000D03*
%TD*%
D20*
%TO.P,REF\u002A\u002A,1*%
%TO.N,Net-(D3-K)*%
X106130000Y-92550000D03*
%TD*%
D14*
%TO.P,C9,1*%
%TO.N,Net-(D2-A)*%
X106678541Y-84530000D03*
%TO.P,C9,2*%
%TO.N,GNDREF*%
X108753541Y-84530000D03*
%TD*%
D21*
%TO.P,R1,1*%
%TO.N,Net-(J4-Pin_1)*%
X118995000Y-92370000D03*
%TO.P,R1,2*%
%TO.N,Net-(IC1-FB)*%
X120820000Y-92370000D03*
%TD*%
D22*
%TO.P,C1,1*%
%TO.N,Net-(D3-K)*%
X98430000Y-70110000D03*
D23*
%TO.P,C1,2*%
%TO.N,GNDREF*%
X98430000Y-65110000D03*
%TD*%
D24*
%TO.P,L1,1,1*%
%TO.N,Net-(IC1-SW)*%
X106212379Y-100150000D03*
%TO.P,L1,2,2*%
%TO.N,Net-(J4-Pin_1)*%
X115412379Y-100150000D03*
%TD*%
D25*
%TO.P,D1,1,K*%
%TO.N,Net-(D1-K)*%
X102550000Y-78280000D03*
%TO.P,D1,2,A*%
%TO.N,Net-(D1-A)*%
X98550000Y-78280000D03*
%TD*%
D18*
%TO.P,C6,1*%
%TO.N,GNDREF*%
X110940000Y-73160000D03*
%TO.P,C6,2*%
%TO.N,Net-(D3-K)*%
X108865000Y-73160000D03*
%TD*%
D15*
%TO.P,J2,1,Pin_1*%
%TO.N,Net-(IC3-OUT)*%
X121700000Y-77210000D03*
D16*
%TO.P,J2,2,Pin_2*%
%TO.N,GNDREF*%
X124240000Y-77210000D03*
%TD*%
D18*
%TO.P,C5,1*%
%TO.N,Net-(IC1-BOOT)*%
X114857500Y-86020000D03*
%TO.P,C5,2*%
%TO.N,Net-(IC1-SW)*%
X112782500Y-86020000D03*
%TD*%
D20*
%TO.P,,1*%
%TO.N,GNDREF*%
X113680000Y-88840000D03*
%TD*%
D14*
%TO.P,C10,1*%
%TO.N,GNDREF*%
X106607379Y-89490000D03*
%TO.P,C10,2*%
%TO.N,Net-(D3-K)*%
X108682379Y-89490000D03*
%TD*%
D26*
%TO.P,C3,1*%
%TO.N,Net-(J4-Pin_1)*%
X121290000Y-98140000D03*
D27*
%TO.P,C3,2*%
%TO.N,GNDREF*%
X123790000Y-98140000D03*
%TD*%
D15*
%TO.P,J3,1,Pin_1*%
%TO.N,Net-(IC2-OUTPUT)*%
X121765000Y-69220000D03*
D16*
%TO.P,J3,2,Pin_2*%
%TO.N,GNDREF*%
X124305000Y-69220000D03*
%TD*%
D14*
%TO.P,C4,1*%
%TO.N,Net-(J4-Pin_1)*%
X118915000Y-89160000D03*
%TO.P,C4,2*%
%TO.N,Net-(IC1-FB)*%
X120990000Y-89160000D03*
%TD*%
D28*
%TO.P,IC3,1,GND*%
%TO.N,GNDREF*%
X108780000Y-80260000D03*
D29*
%TO.P,IC3,2,IN*%
%TO.N,Net-(D2-A)*%
X111330000Y-80260000D03*
%TO.P,IC3,3,OUT*%
%TO.N,Net-(IC3-OUT)*%
X113880000Y-80260000D03*
%TD*%
D30*
%TO.P,T1,6,SEC_2*%
%TO.N,GNDREF*%
X90180500Y-80945000D03*
D31*
%TO.P,T1,1,PRI_1*%
%TO.N,Net-(T1-PRI_1)*%
X59700500Y-74595000D03*
D30*
%TO.P,T1,4,PRI_2*%
%TO.N,Net-(T1-PRI_2)*%
X59700500Y-93645000D03*
%TO.P,T1,5,SEC_1*%
%TO.N,Net-(D1-A)*%
X90180500Y-74595000D03*
%TO.P,T1,7,SEC_3*%
%TO.N,GNDREF*%
X90180500Y-87295000D03*
%TO.P,T1,8,SEC_4*%
%TO.N,Net-(D2-K)*%
X90180500Y-93645000D03*
%TD*%
D28*
%TO.P,IC2,1,INPUT*%
%TO.N,Net-(D3-K)*%
X108780000Y-69070000D03*
D29*
%TO.P,IC2,2,GROUND*%
%TO.N,GNDREF*%
X111330000Y-69070000D03*
%TO.P,IC2,3,OUTPUT*%
%TO.N,Net-(IC2-OUTPUT)*%
X113880000Y-69070000D03*
%TD*%
D21*
%TO.P,R2,1*%
%TO.N,Net-(IC1-FB)*%
X122475000Y-92390000D03*
%TO.P,R2,2*%
%TO.N,Net-(R2-Pad2)*%
X124300000Y-92390000D03*
%TD*%
D25*
%TO.P,D3,1,K*%
%TO.N,Net-(D3-K)*%
X102510000Y-89440000D03*
%TO.P,D3,2,A*%
%TO.N,Net-(D2-K)*%
X98510000Y-89440000D03*
%TD*%
D22*
%TO.P,C2,1*%
%TO.N,GNDREF*%
X98200000Y-97540000D03*
D23*
%TO.P,C2,2*%
%TO.N,Net-(D2-A)*%
X98200000Y-102540000D03*
%TD*%
D32*
%TO.P,R3,1*%
%TO.N,Net-(R2-Pad2)*%
X125210000Y-88885000D03*
%TO.P,R3,2*%
%TO.N,GNDREF*%
X125210000Y-90710000D03*
%TD*%
D33*
%TO.N,Net-(D1-K)*%
X102550000Y-78280000D02*
X102550000Y-80020000D01*
X102550000Y-80020000D02*
X100140000Y-82430000D01*
%TO.N,Net-(D2-A)*%
X110839071Y-82151000D02*
X111330000Y-81660071D01*
X106678541Y-84157812D02*
X108685353Y-82151000D01*
X106128541Y-83980000D02*
X96500000Y-83980000D01*
X106678541Y-84530000D02*
X106678541Y-84157812D01*
X94850000Y-82220000D02*
X94890000Y-82180000D01*
X94850000Y-85630000D02*
X94850000Y-82220000D01*
X111330000Y-81660071D02*
X111330000Y-80260000D01*
X108685353Y-82151000D02*
X110839071Y-82151000D01*
X96500000Y-83980000D02*
X94850000Y-85630000D01*
X106678541Y-84530000D02*
X106128541Y-83980000D01*
%TO.N,Net-(J4-Pin_1)*%
X118995000Y-92370000D02*
X118995000Y-93895000D01*
X115412379Y-100150000D02*
X119280000Y-100150000D01*
X121290000Y-98140000D02*
X121290000Y-98330000D01*
X121290000Y-96190000D02*
X121290000Y-98140000D01*
X118995000Y-93895000D02*
X121290000Y-96190000D01*
X121042379Y-98387621D02*
X121290000Y-98140000D01*
X118995000Y-92370000D02*
X118995000Y-89240000D01*
X121290000Y-98330000D02*
X122480000Y-99520000D01*
X122480000Y-99520000D02*
X122480000Y-104570000D01*
X118995000Y-89240000D02*
X118915000Y-89160000D01*
X119280000Y-100150000D02*
X121290000Y-98140000D01*
%TO.N,Net-(IC1-FB)*%
X122475000Y-92390000D02*
X120840000Y-92390000D01*
X116027000Y-93210000D02*
X115250000Y-93210000D01*
X119736188Y-87534000D02*
X118093812Y-87534000D01*
X120840000Y-92390000D02*
X120820000Y-92370000D01*
X117426500Y-91810500D02*
X116027000Y-93210000D01*
X117426500Y-88201312D02*
X117426500Y-91810500D01*
X118093812Y-87534000D02*
X117426500Y-88201312D01*
X120990000Y-88787812D02*
X119736188Y-87534000D01*
X120820000Y-89330000D02*
X120990000Y-89160000D01*
X120990000Y-89160000D02*
X120990000Y-88787812D01*
X120820000Y-92370000D02*
X120820000Y-89330000D01*
%TO.N,Net-(IC1-BOOT)*%
X115580000Y-91310000D02*
X116190000Y-90700000D01*
X115890000Y-86020000D02*
X114857500Y-86020000D01*
X116190000Y-86320000D02*
X115890000Y-86020000D01*
X116190000Y-90700000D02*
X116190000Y-86320000D01*
X115250000Y-91310000D02*
X115580000Y-91310000D01*
%TO.N,Net-(IC1-SW)*%
X111973000Y-92260000D02*
X110710000Y-90997000D01*
X112750000Y-92260000D02*
X111973000Y-92260000D01*
X113960000Y-94470000D02*
X113960000Y-92590000D01*
X106212379Y-100150000D02*
X108280000Y-100150000D01*
X108280000Y-100150000D02*
X113960000Y-94470000D01*
X110710000Y-90997000D02*
X110710000Y-87140000D01*
X111830000Y-86020000D02*
X112782500Y-86020000D01*
X113630000Y-92260000D02*
X112750000Y-92260000D01*
X110710000Y-87140000D02*
X111830000Y-86020000D01*
X113960000Y-92590000D02*
X113630000Y-92260000D01*
%TO.N,Net-(IC2-OUTPUT)*%
X121765000Y-69220000D02*
X114030000Y-69220000D01*
X114030000Y-69220000D02*
X113880000Y-69070000D01*
X122080000Y-68905000D02*
X121765000Y-69220000D01*
X122080000Y-66270000D02*
X122080000Y-68905000D01*
%TO.N,Net-(IC3-OUT)*%
X121815000Y-77325000D02*
X121700000Y-77210000D01*
X113880000Y-80260000D02*
X116930000Y-77210000D01*
X114380000Y-80760000D02*
X113880000Y-80260000D01*
X116930000Y-77210000D02*
X121700000Y-77210000D01*
X121815000Y-83980000D02*
X121815000Y-77325000D01*
%TO.N,Net-(D1-A)*%
X90240500Y-74935000D02*
X91645000Y-74935000D01*
X91645000Y-74935000D02*
X94890000Y-78180000D01*
X94890000Y-78180000D02*
X98450000Y-78180000D01*
X98450000Y-78180000D02*
X98550000Y-78280000D01*
%TO.N,Net-(D2-K)*%
X90240500Y-93985000D02*
X94595500Y-89630000D01*
X98510000Y-89440000D02*
X95040000Y-89440000D01*
X95040000Y-89440000D02*
X94850000Y-89630000D01*
X94595500Y-89630000D02*
X94850000Y-89630000D01*
%TO.N,Net-(R2-Pad2)*%
X125210000Y-88885000D02*
X124125000Y-88885000D01*
X124300000Y-92110838D02*
X124300000Y-92390000D01*
X123300000Y-91110838D02*
X124300000Y-92110838D01*
X124125000Y-88885000D02*
X123300000Y-89710000D01*
X123300000Y-89710000D02*
X123300000Y-91110838D01*
%TO.N,Net-(D3-K)*%
X111475530Y-93461000D02*
X112499001Y-93460999D01*
X100140000Y-85530000D02*
X100140000Y-87070000D01*
X108865000Y-73160000D02*
X108865000Y-69155000D01*
X100140000Y-87070000D02*
X102510000Y-89440000D01*
X102510000Y-89440000D02*
X103020000Y-89440000D01*
X110564530Y-92550000D02*
X111475530Y-93461000D01*
X103020000Y-89440000D02*
X106130000Y-92550000D01*
X108682379Y-89490000D02*
X108682379Y-90667849D01*
X108865000Y-69155000D02*
X108780000Y-69070000D01*
X108682379Y-90667849D02*
X110257265Y-92242735D01*
X112499001Y-93460999D02*
X112750000Y-93461000D01*
X106130000Y-92550000D02*
X110564530Y-92550000D01*
X110257265Y-92242735D02*
X111475530Y-93461000D01*
%TD*%
%TA.AperFunction,Conductor*%
%TO.N,GNDREF*%
G36*
X113910646Y-87094989D02*
G01*
X113914128Y-87099007D01*
X113915059Y-87099939D01*
X113915060Y-87099940D01*
X114059247Y-87215842D01*
X114224979Y-87298037D01*
X114404501Y-87342682D01*
X114404502Y-87342682D01*
X114404505Y-87342683D01*
X114446046Y-87345500D01*
X114446048Y-87345500D01*
X115165500Y-87345500D01*
X115232539Y-87365185D01*
X115278294Y-87417989D01*
X115289500Y-87469500D01*
X115289500Y-90275638D01*
X115280855Y-90305078D01*
X115274332Y-90335065D01*
X115270577Y-90340080D01*
X115269815Y-90342677D01*
X115253181Y-90363319D01*
X115243319Y-90373181D01*
X115181996Y-90406666D01*
X115167304Y-90408245D01*
X115167369Y-90408903D01*
X115161304Y-90409500D01*
X114987337Y-90444104D01*
X114987331Y-90444106D01*
X114918238Y-90472724D01*
X114873324Y-90482136D01*
X114000000Y-90499999D01*
X113992467Y-90507675D01*
X113980232Y-90549087D01*
X113927351Y-90594753D01*
X113858176Y-90604580D01*
X113800543Y-90580248D01*
X113677586Y-90485899D01*
X113553737Y-90434600D01*
X113378551Y-90410000D01*
X113025000Y-90410000D01*
X113025000Y-91186000D01*
X113005315Y-91253039D01*
X112952511Y-91298794D01*
X112901000Y-91310000D01*
X112599000Y-91310000D01*
X112531961Y-91290315D01*
X112486206Y-91237511D01*
X112475000Y-91186000D01*
X112475000Y-90410000D01*
X112085675Y-90410000D01*
X111968371Y-90425442D01*
X111968366Y-90425444D01*
X111822412Y-90485899D01*
X111822410Y-90485901D01*
X111809986Y-90495435D01*
X111744817Y-90520629D01*
X111676372Y-90506591D01*
X111626383Y-90457777D01*
X111610500Y-90397059D01*
X111610500Y-89970147D01*
X112938758Y-89970147D01*
X112938759Y-89970148D01*
X112972442Y-89994620D01*
X113161782Y-90091095D01*
X113363870Y-90156757D01*
X113405531Y-90163356D01*
X113595271Y-90190000D01*
X113786246Y-90190000D01*
X113996127Y-90156757D01*
X113996130Y-90156757D01*
X114198217Y-90091095D01*
X114387554Y-89994622D01*
X114421239Y-89970148D01*
X114421239Y-89970147D01*
X113680000Y-89228908D01*
X112938758Y-89970147D01*
X111610500Y-89970147D01*
X111610500Y-88733753D01*
X112330000Y-88733753D01*
X112330000Y-88946246D01*
X112363242Y-89156127D01*
X112363242Y-89156130D01*
X112428904Y-89358217D01*
X112525375Y-89547550D01*
X112549851Y-89581239D01*
X113291092Y-88840000D01*
X113248305Y-88797213D01*
X113355000Y-88797213D01*
X113355000Y-88882787D01*
X113377149Y-88965445D01*
X113419936Y-89039554D01*
X113480446Y-89100064D01*
X113554555Y-89142851D01*
X113637213Y-89165000D01*
X113722787Y-89165000D01*
X113805445Y-89142851D01*
X113879554Y-89100064D01*
X113940064Y-89039554D01*
X113982851Y-88965445D01*
X114005000Y-88882787D01*
X114005000Y-88839999D01*
X114068908Y-88839999D01*
X114068908Y-88840000D01*
X114810147Y-89581239D01*
X114810148Y-89581239D01*
X114834622Y-89547554D01*
X114931095Y-89358217D01*
X114996757Y-89156130D01*
X114996757Y-89156127D01*
X115030000Y-88946246D01*
X115030000Y-88733753D01*
X114996757Y-88523872D01*
X114996757Y-88523869D01*
X114931095Y-88321782D01*
X114834620Y-88132442D01*
X114810148Y-88098759D01*
X114810147Y-88098758D01*
X114068908Y-88839999D01*
X114005000Y-88839999D01*
X114005000Y-88797213D01*
X113982851Y-88714555D01*
X113940064Y-88640446D01*
X113879554Y-88579936D01*
X113805445Y-88537149D01*
X113722787Y-88515000D01*
X113637213Y-88515000D01*
X113554555Y-88537149D01*
X113480446Y-88579936D01*
X113419936Y-88640446D01*
X113377149Y-88714555D01*
X113355000Y-88797213D01*
X113248305Y-88797213D01*
X112549851Y-88098759D01*
X112549850Y-88098759D01*
X112525379Y-88132442D01*
X112428904Y-88321782D01*
X112363242Y-88523869D01*
X112363242Y-88523872D01*
X112330000Y-88733753D01*
X111610500Y-88733753D01*
X111610500Y-87564361D01*
X111630185Y-87497322D01*
X111646815Y-87476684D01*
X111870069Y-87253429D01*
X111931390Y-87219946D01*
X112001081Y-87224930D01*
X112012842Y-87230024D01*
X112060039Y-87253431D01*
X112149979Y-87298037D01*
X112329501Y-87342682D01*
X112329502Y-87342682D01*
X112329505Y-87342683D01*
X112371046Y-87345500D01*
X112371048Y-87345500D01*
X113128000Y-87345500D01*
X113195039Y-87365185D01*
X113240794Y-87417989D01*
X113250738Y-87487147D01*
X113221713Y-87550703D01*
X113166316Y-87587432D01*
X113161780Y-87588905D01*
X112972442Y-87685379D01*
X112938759Y-87709850D01*
X112938759Y-87709851D01*
X113680000Y-88451092D01*
X113680001Y-88451092D01*
X114421239Y-87709851D01*
X114387550Y-87685375D01*
X114198217Y-87588904D01*
X113996129Y-87523242D01*
X113786246Y-87490000D01*
X113573747Y-87490000D01*
X113573194Y-87490088D01*
X113572982Y-87490060D01*
X113568902Y-87490382D01*
X113568834Y-87489523D01*
X113503902Y-87481120D01*
X113450458Y-87436114D01*
X113429831Y-87369358D01*
X113448569Y-87302048D01*
X113498722Y-87256525D01*
X113580753Y-87215842D01*
X113724940Y-87099940D01*
X113724944Y-87099934D01*
X113729689Y-87095190D01*
X113731053Y-87096554D01*
X113780690Y-87061997D01*
X113850512Y-87059414D01*
X113910646Y-87094989D01*
G37*
%TD.AperFunction*%
%TA.AperFunction,Conductor*%
G36*
X128442539Y-60520185D02*
G01*
X128488294Y-60572989D01*
X128499500Y-60624500D01*
X128499500Y-107375500D01*
X128479815Y-107442539D01*
X128427011Y-107488294D01*
X128375500Y-107499500D01*
X90624500Y-107499500D01*
X90557461Y-107479815D01*
X90511706Y-107427011D01*
X90500500Y-107375500D01*
X90500500Y-104934110D01*
X90500500Y-104934108D01*
X90466392Y-104806814D01*
X90400500Y-104692686D01*
X90307314Y-104599500D01*
X90250250Y-104566554D01*
X90193187Y-104533608D01*
X90129539Y-104516554D01*
X90065892Y-104499500D01*
X86595383Y-104499500D01*
X86528344Y-104479815D01*
X86482589Y-104427011D01*
X86471384Y-104375974D01*
X86463880Y-102414038D01*
X96599500Y-102414038D01*
X96599500Y-102665961D01*
X96638910Y-102914785D01*
X96716760Y-103154383D01*
X96831132Y-103378848D01*
X96979201Y-103582649D01*
X96979205Y-103582654D01*
X97157345Y-103760794D01*
X97157350Y-103760798D01*
X97225117Y-103810033D01*
X97361155Y-103908870D01*
X97504184Y-103981747D01*
X97585616Y-104023239D01*
X97585618Y-104023239D01*
X97585621Y-104023241D01*
X97825215Y-104101090D01*
X98074038Y-104140500D01*
X98074039Y-104140500D01*
X98325961Y-104140500D01*
X98325962Y-104140500D01*
X98574785Y-104101090D01*
X98814379Y-104023241D01*
X99038845Y-103908870D01*
X99242656Y-103760793D01*
X99420793Y-103582656D01*
X99568870Y-103378845D01*
X99683241Y-103154379D01*
X99761090Y-102914785D01*
X99800500Y-102665962D01*
X99800500Y-102414038D01*
X99761090Y-102165215D01*
X99683241Y-101925621D01*
X99683239Y-101925618D01*
X99683239Y-101925616D01*
X99641747Y-101844184D01*
X99568870Y-101701155D01*
X99549952Y-101675117D01*
X99420798Y-101497350D01*
X99420794Y-101497345D01*
X99242654Y-101319205D01*
X99242649Y-101319201D01*
X99038848Y-101171132D01*
X99038847Y-101171131D01*
X99038845Y-101171130D01*
X98968747Y-101135413D01*
X98814383Y-101056760D01*
X98574785Y-100978910D01*
X98325962Y-100939500D01*
X98074038Y-100939500D01*
X97949626Y-100959205D01*
X97825214Y-100978910D01*
X97585616Y-101056760D01*
X97361151Y-101171132D01*
X97157350Y-101319201D01*
X97157345Y-101319205D01*
X96979205Y-101497345D01*
X96979201Y-101497350D01*
X96831132Y-101701151D01*
X96716760Y-101925616D01*
X96638910Y-102165214D01*
X96599500Y-102414038D01*
X86463880Y-102414038D01*
X86463863Y-102409640D01*
X86446096Y-97764112D01*
X86441264Y-96500669D01*
X96600000Y-96500669D01*
X96600000Y-97265000D01*
X97781422Y-97265000D01*
X97734075Y-97347007D01*
X97700000Y-97474174D01*
X97700000Y-97605826D01*
X97734075Y-97732993D01*
X97781422Y-97815000D01*
X96600001Y-97815000D01*
X96600001Y-98579324D01*
X96615442Y-98696628D01*
X96615444Y-98696633D01*
X96675899Y-98842585D01*
X96772075Y-98967924D01*
X96897413Y-99064100D01*
X97043365Y-99124554D01*
X97043369Y-99124555D01*
X97160676Y-99139999D01*
X97924999Y-99139999D01*
X97925000Y-99139998D01*
X97925000Y-97958578D01*
X98007007Y-98005925D01*
X98134174Y-98040000D01*
X98265826Y-98040000D01*
X98392993Y-98005925D01*
X98475000Y-97958578D01*
X98475000Y-99139999D01*
X99239324Y-99139999D01*
X99356628Y-99124557D01*
X99356633Y-99124555D01*
X99502585Y-99064100D01*
X99627924Y-98967924D01*
X99724100Y-98842586D01*
X99784554Y-98696634D01*
X99784555Y-98696630D01*
X99799999Y-98579330D01*
X99800000Y-98579316D01*
X99800000Y-97815000D01*
X98618578Y-97815000D01*
X98665925Y-97732993D01*
X98700000Y-97605826D01*
X98700000Y-97474174D01*
X98665925Y-97347007D01*
X98618578Y-97265000D01*
X99799999Y-97265000D01*
X99799999Y-96500675D01*
X99784557Y-96383371D01*
X99784555Y-96383366D01*
X99724100Y-96237414D01*
X99627924Y-96112075D01*
X99502586Y-96015899D01*
X99356634Y-95955445D01*
X99356630Y-95955444D01*
X99239330Y-95940000D01*
X98475000Y-95940000D01*
X98475000Y-97121421D01*
X98392993Y-97074075D01*
X98265826Y-97040000D01*
X98134174Y-97040000D01*
X98007007Y-97074075D01*
X97925000Y-97121421D01*
X97925000Y-95940000D01*
X97160675Y-95940000D01*
X97043371Y-95955442D01*
X97043366Y-95955444D01*
X96897414Y-96015899D01*
X96772075Y-96112075D01*
X96675899Y-96237413D01*
X96615445Y-96383365D01*
X96615444Y-96383369D01*
X96600000Y-96500669D01*
X86441264Y-96500669D01*
X86441250Y-96497092D01*
X86429856Y-93518048D01*
X88567500Y-93518048D01*
X88567500Y-93771951D01*
X88607216Y-94022712D01*
X88685675Y-94264181D01*
X88800938Y-94490396D01*
X88950172Y-94695799D01*
X89129701Y-94875328D01*
X89335104Y-95024562D01*
X89441984Y-95079020D01*
X89561318Y-95139824D01*
X89561320Y-95139824D01*
X89561323Y-95139826D01*
X89690754Y-95181880D01*
X89802787Y-95218283D01*
X90053549Y-95258000D01*
X90053554Y-95258000D01*
X90307451Y-95258000D01*
X90558212Y-95218283D01*
X90799677Y-95139826D01*
X91025896Y-95024562D01*
X91231299Y-94875328D01*
X91410828Y-94695799D01*
X91560062Y-94490396D01*
X91675326Y-94264177D01*
X91753783Y-94022712D01*
X91758074Y-93995620D01*
X91793500Y-93771951D01*
X91793500Y-93756861D01*
X91813185Y-93689822D01*
X91829814Y-93669185D01*
X93985483Y-91513515D01*
X94046804Y-91480032D01*
X94081553Y-91477482D01*
X94084500Y-91477681D01*
X94084505Y-91477683D01*
X94126046Y-91480500D01*
X94126048Y-91480500D01*
X95573952Y-91480500D01*
X95573954Y-91480500D01*
X95615495Y-91477683D01*
X95795021Y-91433037D01*
X95960753Y-91350842D01*
X96104940Y-91234940D01*
X96220842Y-91090753D01*
X96303037Y-90925021D01*
X96347683Y-90745495D01*
X96350500Y-90703954D01*
X96350500Y-90464500D01*
X96353050Y-90455814D01*
X96351762Y-90446853D01*
X96362740Y-90422812D01*
X96370185Y-90397461D01*
X96377025Y-90391533D01*
X96380787Y-90383297D01*
X96403021Y-90369007D01*
X96422989Y-90351706D01*
X96433503Y-90349418D01*
X96439565Y-90345523D01*
X96474500Y-90340500D01*
X96607969Y-90340500D01*
X96675008Y-90360185D01*
X96719055Y-90409402D01*
X96763987Y-90500000D01*
X96789158Y-90550754D01*
X96905059Y-90694940D01*
X96981694Y-90756541D01*
X97049247Y-90810842D01*
X97214979Y-90893037D01*
X97394501Y-90937682D01*
X97394502Y-90937682D01*
X97394505Y-90937683D01*
X97436046Y-90940500D01*
X97436048Y-90940500D01*
X99583952Y-90940500D01*
X99583954Y-90940500D01*
X99625495Y-90937683D01*
X99805021Y-90893037D01*
X99970753Y-90810842D01*
X100114940Y-90694940D01*
X100230842Y-90550753D01*
X100313037Y-90385021D01*
X100357683Y-90205495D01*
X100360500Y-90163954D01*
X100360500Y-88863362D01*
X100366738Y-88842116D01*
X100368318Y-88820028D01*
X100376390Y-88809244D01*
X100380185Y-88796323D01*
X100396918Y-88781823D01*
X100410190Y-88764095D01*
X100422810Y-88759387D01*
X100432989Y-88750568D01*
X100454906Y-88747416D01*
X100475654Y-88739678D01*
X100488814Y-88742540D01*
X100502147Y-88740624D01*
X100522290Y-88749823D01*
X100543927Y-88754530D01*
X100561652Y-88767798D01*
X100565703Y-88769649D01*
X100572181Y-88775681D01*
X100623181Y-88826681D01*
X100656666Y-88888004D01*
X100659500Y-88914362D01*
X100659500Y-90163951D01*
X100662317Y-90205499D01*
X100706963Y-90385021D01*
X100706964Y-90385023D01*
X100789156Y-90550750D01*
X100789157Y-90550751D01*
X100789158Y-90550753D01*
X100801564Y-90566186D01*
X100905059Y-90694940D01*
X100981694Y-90756541D01*
X101049247Y-90810842D01*
X101214979Y-90893037D01*
X101394501Y-90937682D01*
X101394502Y-90937682D01*
X101394505Y-90937683D01*
X101436046Y-90940500D01*
X103195638Y-90940500D01*
X103262677Y-90960185D01*
X103283319Y-90976819D01*
X104573681Y-92267181D01*
X104607166Y-92328504D01*
X104610000Y-92354862D01*
X104610000Y-94047219D01*
X104590315Y-94114258D01*
X104537511Y-94160013D01*
X104486349Y-94171219D01*
X104431319Y-94171374D01*
X103648289Y-94966929D01*
X103783982Y-105361216D01*
X103783983Y-105361217D01*
X104421027Y-105989895D01*
X117386027Y-105987767D01*
X118031101Y-105337541D01*
X117998669Y-101175466D01*
X118017830Y-101108275D01*
X118070276Y-101062110D01*
X118122665Y-101050500D01*
X119368693Y-101050500D01*
X119368694Y-101050499D01*
X119542666Y-101015895D01*
X119631954Y-100978910D01*
X119706547Y-100948013D01*
X119794959Y-100888936D01*
X119854036Y-100849464D01*
X121107318Y-99596179D01*
X121168641Y-99562695D01*
X121238332Y-99567679D01*
X121282680Y-99596180D01*
X121543181Y-99856681D01*
X121576666Y-99918004D01*
X121579500Y-99944362D01*
X121579500Y-103012221D01*
X121559815Y-103079260D01*
X121507011Y-103125015D01*
X121480990Y-103132489D01*
X121481088Y-103132853D01*
X121473237Y-103134956D01*
X121327160Y-103195463D01*
X121201718Y-103291718D01*
X121105463Y-103417160D01*
X121044956Y-103563237D01*
X121044955Y-103563239D01*
X121029501Y-103680629D01*
X121029500Y-103680645D01*
X121029500Y-105459363D01*
X121044953Y-105576753D01*
X121044956Y-105576762D01*
X121066401Y-105628536D01*
X121105464Y-105722841D01*
X121201718Y-105848282D01*
X121327159Y-105944536D01*
X121473238Y-106005044D01*
X121590639Y-106020500D01*
X123369360Y-106020499D01*
X123369363Y-106020499D01*
X123486753Y-106005046D01*
X123486757Y-106005044D01*
X123486762Y-106005044D01*
X123632841Y-105944536D01*
X123758282Y-105848282D01*
X123854536Y-105722841D01*
X123861924Y-105705005D01*
X123905764Y-105650601D01*
X123972058Y-105628536D01*
X124039758Y-105645815D01*
X124064166Y-105664776D01*
X124075385Y-105675995D01*
X124260033Y-105810150D01*
X124463395Y-105913769D01*
X124680454Y-105984295D01*
X124744999Y-105994518D01*
X124745000Y-105994518D01*
X124745000Y-104988578D01*
X124827007Y-105035925D01*
X124954174Y-105070000D01*
X125085826Y-105070000D01*
X125212993Y-105035925D01*
X125295000Y-104988578D01*
X125295000Y-105994518D01*
X125359543Y-105984295D01*
X125359546Y-105984295D01*
X125576604Y-105913769D01*
X125779966Y-105810150D01*
X125964614Y-105675995D01*
X126125995Y-105514614D01*
X126260150Y-105329966D01*
X126363769Y-105126604D01*
X126434295Y-104909547D01*
X126434295Y-104909546D01*
X126444519Y-104845000D01*
X125438578Y-104845000D01*
X125485925Y-104762993D01*
X125520000Y-104635826D01*
X125520000Y-104504174D01*
X125485925Y-104377007D01*
X125438578Y-104295000D01*
X126444519Y-104295000D01*
X126434295Y-104230453D01*
X126434295Y-104230452D01*
X126363769Y-104013395D01*
X126260150Y-103810033D01*
X126125995Y-103625385D01*
X125964614Y-103464004D01*
X125779966Y-103329849D01*
X125576604Y-103226230D01*
X125359546Y-103155704D01*
X125295000Y-103145481D01*
X125295000Y-104151421D01*
X125212993Y-104104075D01*
X125085826Y-104070000D01*
X124954174Y-104070000D01*
X124827007Y-104104075D01*
X124745000Y-104151421D01*
X124745000Y-103145481D01*
X124680453Y-103155704D01*
X124680452Y-103155704D01*
X124463395Y-103226230D01*
X124260030Y-103329851D01*
X124075394Y-103463996D01*
X124075388Y-103464001D01*
X124064163Y-103475226D01*
X124002839Y-103508709D01*
X123933147Y-103503722D01*
X123877215Y-103461849D01*
X123861924Y-103434995D01*
X123854536Y-103417160D01*
X123854536Y-103417159D01*
X123758282Y-103291718D01*
X123632841Y-103195464D01*
X123486762Y-103134956D01*
X123478912Y-103132853D01*
X123479355Y-103131199D01*
X123424410Y-103106886D01*
X123385944Y-103048558D01*
X123380500Y-103012221D01*
X123380500Y-99637777D01*
X123400185Y-99570738D01*
X123452989Y-99524983D01*
X123522147Y-99515039D01*
X123523898Y-99515304D01*
X123679819Y-99540000D01*
X123900181Y-99540000D01*
X124117835Y-99505526D01*
X124327410Y-99437432D01*
X124523760Y-99337386D01*
X124567035Y-99305944D01*
X124567036Y-99305944D01*
X123801092Y-98540000D01*
X123842661Y-98540000D01*
X123944394Y-98512741D01*
X124035606Y-98460080D01*
X124110080Y-98385606D01*
X124162741Y-98294394D01*
X124190000Y-98192661D01*
X124190000Y-98151092D01*
X124955943Y-98917036D01*
X124955944Y-98917035D01*
X124987386Y-98873760D01*
X125087432Y-98677410D01*
X125155526Y-98467835D01*
X125190000Y-98250181D01*
X125190000Y-98029818D01*
X125155526Y-97812164D01*
X125087432Y-97602589D01*
X124987388Y-97406243D01*
X124955944Y-97362963D01*
X124190000Y-98128907D01*
X124190000Y-98087339D01*
X124162741Y-97985606D01*
X124110080Y-97894394D01*
X124035606Y-97819920D01*
X123944394Y-97767259D01*
X123842661Y-97740000D01*
X123801092Y-97740000D01*
X124567035Y-96974054D01*
X124567035Y-96974053D01*
X124523761Y-96942614D01*
X124327410Y-96842567D01*
X124117835Y-96774473D01*
X123900181Y-96740000D01*
X123679819Y-96740000D01*
X123462164Y-96774473D01*
X123252589Y-96842567D01*
X123056237Y-96942614D01*
X123012963Y-96974053D01*
X123012963Y-96974054D01*
X123778909Y-97740000D01*
X123737339Y-97740000D01*
X123635606Y-97767259D01*
X123544394Y-97819920D01*
X123469920Y-97894394D01*
X123417259Y-97985606D01*
X123390000Y-98087339D01*
X123390000Y-98128908D01*
X122726818Y-97465726D01*
X122693333Y-97404403D01*
X122690499Y-97378045D01*
X122690499Y-97300636D01*
X122675046Y-97183246D01*
X122675044Y-97183239D01*
X122675044Y-97183238D01*
X122614536Y-97037159D01*
X122518282Y-96911718D01*
X122392841Y-96815464D01*
X122392839Y-96815463D01*
X122267047Y-96763358D01*
X122212644Y-96719517D01*
X122190579Y-96653222D01*
X122190500Y-96648797D01*
X122190500Y-96101307D01*
X122190499Y-96101303D01*
X122173511Y-96015899D01*
X122155895Y-95927334D01*
X122139577Y-95887940D01*
X122124477Y-95851485D01*
X122124474Y-95851480D01*
X122121953Y-95845393D01*
X122088013Y-95763453D01*
X122028936Y-95675040D01*
X122012423Y-95650326D01*
X121989466Y-95615966D01*
X119931819Y-93558319D01*
X119917115Y-93531391D01*
X119900523Y-93505573D01*
X119899631Y-93499372D01*
X119898334Y-93496996D01*
X119895500Y-93470638D01*
X119895500Y-93399256D01*
X119915185Y-93332217D01*
X119967989Y-93286462D01*
X120037147Y-93276518D01*
X120097184Y-93302607D01*
X120116018Y-93317746D01*
X120116023Y-93317750D01*
X120224594Y-93371595D01*
X120279315Y-93398734D01*
X120456199Y-93442723D01*
X120456200Y-93442723D01*
X120456203Y-93442724D01*
X120497139Y-93445500D01*
X121142860Y-93445499D01*
X121183797Y-93442724D01*
X121360685Y-93398734D01*
X121523981Y-93317747D01*
X121523983Y-93317745D01*
X121529652Y-93314123D01*
X121530327Y-93315179D01*
X121546229Y-93308615D01*
X121566602Y-93295523D01*
X121584008Y-93293020D01*
X121588430Y-93291195D01*
X121601537Y-93290500D01*
X121668583Y-93290500D01*
X121735622Y-93310185D01*
X121746258Y-93317844D01*
X121771019Y-93337747D01*
X121934315Y-93418734D01*
X122111199Y-93462723D01*
X122111200Y-93462723D01*
X122111203Y-93462724D01*
X122152139Y-93465500D01*
X122797860Y-93465499D01*
X122838797Y-93462724D01*
X123015685Y-93418734D01*
X123178981Y-93337747D01*
X123309816Y-93232578D01*
X123374396Y-93205921D01*
X123443140Y-93218411D01*
X123465178Y-93232573D01*
X123596019Y-93337747D01*
X123759315Y-93418734D01*
X123936199Y-93462723D01*
X123936200Y-93462723D01*
X123936203Y-93462724D01*
X123977139Y-93465500D01*
X124622860Y-93465499D01*
X124663797Y-93462724D01*
X124840685Y-93418734D01*
X125003981Y-93337747D01*
X125146049Y-93223549D01*
X125260247Y-93081481D01*
X125341234Y-92918185D01*
X125385224Y-92741297D01*
X125388000Y-92700361D01*
X125387999Y-92079640D01*
X125385224Y-92038703D01*
X125363519Y-91951425D01*
X125366443Y-91881616D01*
X125406644Y-91824470D01*
X125471358Y-91798130D01*
X125483854Y-91797499D01*
X125520321Y-91797499D01*
X125520325Y-91797498D01*
X125561225Y-91794726D01*
X125561227Y-91794726D01*
X125738013Y-91750761D01*
X125901209Y-91669823D01*
X125901215Y-91669819D01*
X126043193Y-91555694D01*
X126043194Y-91555693D01*
X126157319Y-91413715D01*
X126157323Y-91413709D01*
X126238261Y-91250513D01*
X126282225Y-91073733D01*
X126285000Y-91032818D01*
X126285000Y-90985000D01*
X125334000Y-90985000D01*
X125266961Y-90965315D01*
X125221206Y-90912511D01*
X125210000Y-90861000D01*
X125210000Y-90559000D01*
X125229685Y-90491961D01*
X125282489Y-90446206D01*
X125334000Y-90435000D01*
X126284999Y-90435000D01*
X126284999Y-90387179D01*
X126284998Y-90387174D01*
X126282226Y-90346274D01*
X126282226Y-90346272D01*
X126238261Y-90169486D01*
X126157323Y-90006290D01*
X126157319Y-90006284D01*
X126052260Y-89875585D01*
X126025601Y-89811001D01*
X126038091Y-89742257D01*
X126052253Y-89720220D01*
X126157747Y-89588981D01*
X126238734Y-89425685D01*
X126282724Y-89248797D01*
X126285500Y-89207861D01*
X126285499Y-88562140D01*
X126282724Y-88521203D01*
X126238734Y-88344315D01*
X126179186Y-88224247D01*
X126157749Y-88181022D01*
X126157747Y-88181020D01*
X126157747Y-88181019D01*
X126043549Y-88038951D01*
X125901481Y-87924753D01*
X125901479Y-87924752D01*
X125901477Y-87924750D01*
X125738187Y-87843767D01*
X125738185Y-87843766D01*
X125561299Y-87799776D01*
X125561303Y-87799776D01*
X125534006Y-87797925D01*
X125520361Y-87797000D01*
X125520358Y-87797000D01*
X124899640Y-87797000D01*
X124899636Y-87797001D01*
X124858705Y-87799775D01*
X124858704Y-87799775D01*
X124681813Y-87843766D01*
X124681812Y-87843767D01*
X124518522Y-87924750D01*
X124518519Y-87924752D01*
X124478219Y-87957147D01*
X124413635Y-87983806D01*
X124400532Y-87984500D01*
X124036303Y-87984500D01*
X123862341Y-88019103D01*
X123862329Y-88019106D01*
X123780392Y-88053045D01*
X123780393Y-88053046D01*
X123698455Y-88086985D01*
X123610040Y-88146063D01*
X123610039Y-88146064D01*
X123550961Y-88185537D01*
X123550960Y-88185538D01*
X122600537Y-89135962D01*
X122600533Y-89135966D01*
X122590285Y-89151306D01*
X122590284Y-89151308D01*
X122501990Y-89283447D01*
X122501983Y-89283459D01*
X122471316Y-89357498D01*
X122471312Y-89357507D01*
X122469515Y-89361848D01*
X122434105Y-89447334D01*
X122422158Y-89507395D01*
X122419826Y-89514507D01*
X122404094Y-89537378D01*
X122391232Y-89561969D01*
X122384574Y-89565760D01*
X122380231Y-89572075D01*
X122354632Y-89582810D01*
X122330517Y-89596543D01*
X122322865Y-89596132D01*
X122315798Y-89599097D01*
X122288463Y-89594289D01*
X122260747Y-89592804D01*
X122254530Y-89588321D01*
X122246985Y-89586994D01*
X122226588Y-89568172D01*
X122204075Y-89551937D01*
X122201269Y-89544807D01*
X122195638Y-89539610D01*
X122188655Y-89512744D01*
X122178494Y-89486919D01*
X122178000Y-89475867D01*
X122178000Y-88611048D01*
X122175890Y-88579936D01*
X122175183Y-88569505D01*
X122173351Y-88562140D01*
X122156649Y-88494978D01*
X122130537Y-88389979D01*
X122048342Y-88224247D01*
X121980723Y-88140126D01*
X121932440Y-88080059D01*
X121830285Y-87997945D01*
X121788253Y-87964158D01*
X121788251Y-87964157D01*
X121788250Y-87964156D01*
X121622523Y-87881964D01*
X121622521Y-87881963D01*
X121442997Y-87837317D01*
X121443001Y-87837317D01*
X121411839Y-87835204D01*
X121401454Y-87834500D01*
X121401452Y-87834500D01*
X121361550Y-87834500D01*
X121294511Y-87814815D01*
X121273869Y-87798181D01*
X120310227Y-86834538D01*
X120310226Y-86834537D01*
X120285492Y-86818011D01*
X120225137Y-86777683D01*
X120162735Y-86735987D01*
X120080794Y-86702046D01*
X120075576Y-86699884D01*
X120075573Y-86699883D01*
X119998854Y-86668105D01*
X119998846Y-86668103D01*
X119824884Y-86633500D01*
X119824880Y-86633500D01*
X119824879Y-86633500D01*
X118182504Y-86633500D01*
X118005121Y-86633500D01*
X118005116Y-86633500D01*
X117831153Y-86668103D01*
X117831145Y-86668105D01*
X117744600Y-86703954D01*
X117744599Y-86703954D01*
X117667271Y-86735983D01*
X117667259Y-86735990D01*
X117544506Y-86818011D01*
X117544505Y-86818013D01*
X117519777Y-86834536D01*
X117519773Y-86834539D01*
X117302181Y-87052131D01*
X117240858Y-87085616D01*
X117171166Y-87080632D01*
X117115233Y-87038760D01*
X117090816Y-86973296D01*
X117090500Y-86964450D01*
X117090500Y-86231308D01*
X117090499Y-86231307D01*
X117085075Y-86204035D01*
X117055895Y-86057334D01*
X117003693Y-85931309D01*
X116988013Y-85893453D01*
X116897061Y-85757334D01*
X116889464Y-85745964D01*
X116712516Y-85569016D01*
X116464039Y-85320538D01*
X116464038Y-85320537D01*
X116433333Y-85300021D01*
X116370499Y-85258037D01*
X116316547Y-85221987D01*
X116234606Y-85188046D01*
X116152666Y-85154105D01*
X116152658Y-85154103D01*
X115981824Y-85120122D01*
X115919913Y-85087737D01*
X115909368Y-85076193D01*
X115799940Y-84940059D01*
X115697785Y-84857945D01*
X115655753Y-84824158D01*
X115655751Y-84824157D01*
X115655750Y-84824156D01*
X115490023Y-84741964D01*
X115490021Y-84741963D01*
X115310497Y-84697317D01*
X115310501Y-84697317D01*
X115279339Y-84695204D01*
X115268954Y-84694500D01*
X114446046Y-84694500D01*
X114434177Y-84695304D01*
X114404500Y-84697317D01*
X114224978Y-84741963D01*
X114224976Y-84741964D01*
X114059249Y-84824156D01*
X113915058Y-84940061D01*
X113910302Y-84944818D01*
X113908938Y-84943454D01*
X113859293Y-84978007D01*
X113789470Y-84980580D01*
X113729341Y-84944996D01*
X113725869Y-84940989D01*
X113724941Y-84940061D01*
X113694697Y-84915750D01*
X113580753Y-84824158D01*
X113580751Y-84824157D01*
X113580750Y-84824156D01*
X113415023Y-84741964D01*
X113415021Y-84741963D01*
X113235497Y-84697317D01*
X113235501Y-84697317D01*
X113204339Y-84695204D01*
X113193954Y-84694500D01*
X112371046Y-84694500D01*
X112359177Y-84695304D01*
X112329500Y-84697317D01*
X112149978Y-84741963D01*
X112149976Y-84741964D01*
X111984249Y-84824156D01*
X111840059Y-84940059D01*
X111719946Y-85089487D01*
X111718948Y-85088684D01*
X111671598Y-85129908D01*
X111644016Y-85138851D01*
X111567339Y-85154103D01*
X111567329Y-85154106D01*
X111485392Y-85188045D01*
X111485393Y-85188046D01*
X111403455Y-85221985D01*
X111349501Y-85258037D01*
X111349500Y-85258038D01*
X111255961Y-85320537D01*
X111255960Y-85320538D01*
X110010538Y-86565961D01*
X110010532Y-86565969D01*
X109994168Y-86590458D01*
X109994155Y-86590479D01*
X109991780Y-86594035D01*
X109911987Y-86713453D01*
X109884216Y-86780500D01*
X109881195Y-86787792D01*
X109881191Y-86787800D01*
X109844105Y-86877333D01*
X109844103Y-86877341D01*
X109823423Y-86981309D01*
X109809500Y-87051304D01*
X109809500Y-88299742D01*
X109789815Y-88366781D01*
X109737011Y-88412536D01*
X109667853Y-88422480D01*
X109607812Y-88396389D01*
X109531411Y-88334976D01*
X109480632Y-88294158D01*
X109480630Y-88294157D01*
X109480629Y-88294156D01*
X109314902Y-88211964D01*
X109314900Y-88211963D01*
X109135376Y-88167317D01*
X109135380Y-88167317D01*
X109104218Y-88165204D01*
X109093833Y-88164500D01*
X108270925Y-88164500D01*
X108259056Y-88165304D01*
X108229379Y-88167317D01*
X108049857Y-88211963D01*
X108049855Y-88211964D01*
X107884128Y-88294156D01*
X107739937Y-88410061D01*
X107735181Y-88414818D01*
X107733921Y-88413558D01*
X107683846Y-88448407D01*
X107614024Y-88450978D01*
X107553896Y-88415392D01*
X107550365Y-88411316D01*
X107549463Y-88410414D01*
X107405360Y-88294581D01*
X107239728Y-88212435D01*
X107060310Y-88167815D01*
X107018791Y-88165000D01*
X106882379Y-88165000D01*
X106882379Y-89366000D01*
X106862694Y-89433039D01*
X106809890Y-89478794D01*
X106758379Y-89490000D01*
X106607379Y-89490000D01*
X106607379Y-89641000D01*
X106587694Y-89708039D01*
X106534890Y-89753794D01*
X106483379Y-89765000D01*
X105419880Y-89765000D01*
X105419880Y-90038917D01*
X105422693Y-90080423D01*
X105422693Y-90080425D01*
X105467315Y-90259849D01*
X105479536Y-90284492D01*
X105491687Y-90353297D01*
X105464710Y-90417748D01*
X105407170Y-90457384D01*
X105337336Y-90459619D01*
X105280766Y-90427266D01*
X104396819Y-89543319D01*
X104363334Y-89481996D01*
X104360500Y-89455638D01*
X104360500Y-88941088D01*
X105419879Y-88941088D01*
X105419879Y-89215000D01*
X106332379Y-89215000D01*
X106332379Y-88165000D01*
X106195967Y-88165000D01*
X106195960Y-88165001D01*
X106154455Y-88167814D01*
X106154453Y-88167814D01*
X105975029Y-88212435D01*
X105809397Y-88294581D01*
X105665294Y-88410414D01*
X105665293Y-88410415D01*
X105549460Y-88554518D01*
X105467314Y-88720150D01*
X105422694Y-88899568D01*
X105419879Y-88941088D01*
X104360500Y-88941088D01*
X104360500Y-88716048D01*
X104358932Y-88692927D01*
X104357683Y-88674505D01*
X104357591Y-88674137D01*
X104346756Y-88630566D01*
X104313037Y-88494979D01*
X104230842Y-88329247D01*
X104180945Y-88267173D01*
X104114940Y-88185059D01*
X103992933Y-88086987D01*
X103970753Y-88069158D01*
X103970751Y-88069157D01*
X103970750Y-88069156D01*
X103805023Y-87986964D01*
X103805021Y-87986963D01*
X103625497Y-87942317D01*
X103625501Y-87942317D01*
X103594339Y-87940204D01*
X103583954Y-87939500D01*
X103583952Y-87939500D01*
X102334362Y-87939500D01*
X102267323Y-87919815D01*
X102246681Y-87903181D01*
X101317954Y-86974454D01*
X101284469Y-86913131D01*
X101289453Y-86843439D01*
X101331325Y-86787506D01*
X101375705Y-86766439D01*
X101510021Y-86733037D01*
X101675753Y-86650842D01*
X101819940Y-86534940D01*
X101935842Y-86390753D01*
X102018037Y-86225021D01*
X102062683Y-86045495D01*
X102065500Y-86003954D01*
X102065500Y-85056046D01*
X102062683Y-85014505D01*
X102062682Y-85014502D01*
X102062573Y-85012891D01*
X102077676Y-84944673D01*
X102127263Y-84895450D01*
X102186289Y-84880500D01*
X105366541Y-84880500D01*
X105433580Y-84900185D01*
X105479335Y-84952989D01*
X105490541Y-85004500D01*
X105490541Y-85078951D01*
X105493358Y-85120499D01*
X105538004Y-85300021D01*
X105538005Y-85300023D01*
X105620197Y-85465750D01*
X105736100Y-85609940D01*
X105818214Y-85675945D01*
X105880288Y-85725842D01*
X106046020Y-85808037D01*
X106225542Y-85852682D01*
X106225543Y-85852682D01*
X106225546Y-85852683D01*
X106267087Y-85855500D01*
X106267089Y-85855500D01*
X107089993Y-85855500D01*
X107089995Y-85855500D01*
X107131536Y-85852683D01*
X107311062Y-85808037D01*
X107476794Y-85725842D01*
X107620981Y-85609940D01*
X107620985Y-85609934D01*
X107625730Y-85605190D01*
X107626990Y-85606450D01*
X107677053Y-85571598D01*
X107746875Y-85569016D01*
X107807009Y-85604592D01*
X107810552Y-85608681D01*
X107811456Y-85609585D01*
X107955559Y-85725418D01*
X108121191Y-85807564D01*
X108300609Y-85852184D01*
X108342129Y-85854999D01*
X108478540Y-85854999D01*
X109028541Y-85854999D01*
X109164952Y-85854999D01*
X109164958Y-85854998D01*
X109206464Y-85852185D01*
X109206466Y-85852185D01*
X109385890Y-85807564D01*
X109551522Y-85725418D01*
X109695625Y-85609585D01*
X109695626Y-85609584D01*
X109811459Y-85465481D01*
X109893605Y-85299849D01*
X109938225Y-85120431D01*
X109941041Y-85078911D01*
X109941041Y-84805000D01*
X109028541Y-84805000D01*
X109028541Y-85854999D01*
X108478540Y-85854999D01*
X108478541Y-85854998D01*
X108478541Y-84654000D01*
X108498226Y-84586961D01*
X108551030Y-84541206D01*
X108602541Y-84530000D01*
X108753541Y-84530000D01*
X108753541Y-84379000D01*
X108773226Y-84311961D01*
X108826030Y-84266206D01*
X108877541Y-84255000D01*
X109941040Y-84255000D01*
X109941040Y-83981089D01*
X109941039Y-83981082D01*
X109938226Y-83939576D01*
X109938226Y-83939574D01*
X109893605Y-83760150D01*
X109811459Y-83594518D01*
X109695626Y-83450415D01*
X109695625Y-83450414D01*
X109551522Y-83334581D01*
X109454752Y-83286588D01*
X109403440Y-83239167D01*
X109385911Y-83171532D01*
X109407730Y-83105157D01*
X109461971Y-83061115D01*
X109509847Y-83051500D01*
X110927764Y-83051500D01*
X110927765Y-83051499D01*
X111101737Y-83016895D01*
X111183677Y-82982953D01*
X111265618Y-82949013D01*
X111354030Y-82889936D01*
X111413107Y-82850464D01*
X112029463Y-82234107D01*
X112029464Y-82234106D01*
X112102829Y-82124306D01*
X112103363Y-82123535D01*
X112129796Y-82102124D01*
X112155906Y-82080304D01*
X112157023Y-82080071D01*
X112157657Y-82079558D01*
X112161542Y-82079130D01*
X112205396Y-82070000D01*
X112920001Y-82070000D01*
X114165000Y-82040000D01*
X115410000Y-82010000D01*
X115410000Y-80717747D01*
X115416069Y-80679429D01*
X115431336Y-80632443D01*
X115470500Y-80385175D01*
X115470500Y-80134825D01*
X115454155Y-80031630D01*
X115463109Y-79962337D01*
X115488944Y-79924554D01*
X117266680Y-78146819D01*
X117328003Y-78113334D01*
X117354361Y-78110500D01*
X120142222Y-78110500D01*
X120209261Y-78130185D01*
X120255016Y-78182989D01*
X120262487Y-78209009D01*
X120262853Y-78208912D01*
X120264956Y-78216762D01*
X120286401Y-78268536D01*
X120325464Y-78362841D01*
X120421718Y-78488282D01*
X120547159Y-78584536D01*
X120693238Y-78645044D01*
X120806686Y-78659979D01*
X120870581Y-78688245D01*
X120909053Y-78746569D01*
X120914500Y-78782918D01*
X120914500Y-82806927D01*
X120894815Y-82873966D01*
X120876429Y-82894413D01*
X120877318Y-82895302D01*
X120872561Y-82900058D01*
X120756656Y-83044249D01*
X120674464Y-83209976D01*
X120674463Y-83209978D01*
X120629817Y-83389500D01*
X120627000Y-83431048D01*
X120627000Y-84528951D01*
X120629817Y-84570499D01*
X120674463Y-84750021D01*
X120674464Y-84750023D01*
X120756656Y-84915750D01*
X120756657Y-84915751D01*
X120756658Y-84915753D01*
X120790445Y-84957785D01*
X120872559Y-85059940D01*
X120946655Y-85119500D01*
X121016747Y-85175842D01*
X121182479Y-85258037D01*
X121362001Y-85302682D01*
X121362002Y-85302682D01*
X121362005Y-85302683D01*
X121403546Y-85305500D01*
X121403548Y-85305500D01*
X122226452Y-85305500D01*
X122226454Y-85305500D01*
X122267995Y-85302683D01*
X122447521Y-85258037D01*
X122613253Y-85175842D01*
X122757440Y-85059940D01*
X122757444Y-85059934D01*
X122762189Y-85055190D01*
X122763449Y-85056450D01*
X122813512Y-85021598D01*
X122883334Y-85019016D01*
X122943468Y-85054592D01*
X122947011Y-85058681D01*
X122947915Y-85059585D01*
X123092018Y-85175418D01*
X123257650Y-85257564D01*
X123437068Y-85302184D01*
X123478588Y-85304999D01*
X123614999Y-85304999D01*
X124165000Y-85304999D01*
X124301411Y-85304999D01*
X124301417Y-85304998D01*
X124342923Y-85302185D01*
X124342925Y-85302185D01*
X124522349Y-85257564D01*
X124687981Y-85175418D01*
X124832084Y-85059585D01*
X124832085Y-85059584D01*
X124947918Y-84915481D01*
X125030064Y-84749849D01*
X125074684Y-84570431D01*
X125077500Y-84528911D01*
X125077500Y-84255000D01*
X124165000Y-84255000D01*
X124165000Y-85304999D01*
X123614999Y-85304999D01*
X123615000Y-85304998D01*
X123615000Y-83705000D01*
X124165000Y-83705000D01*
X125077499Y-83705000D01*
X125077499Y-83431089D01*
X125077498Y-83431082D01*
X125074685Y-83389576D01*
X125074685Y-83389574D01*
X125030064Y-83210150D01*
X124947918Y-83044518D01*
X124832085Y-82900415D01*
X124832084Y-82900414D01*
X124687981Y-82784581D01*
X124522349Y-82702435D01*
X124342931Y-82657815D01*
X124301412Y-82655000D01*
X124165000Y-82655000D01*
X124165000Y-83705000D01*
X123615000Y-83705000D01*
X123615000Y-82655000D01*
X123478588Y-82655000D01*
X123478581Y-82655001D01*
X123437076Y-82657814D01*
X123437074Y-82657814D01*
X123257650Y-82702435D01*
X123092018Y-82784581D01*
X122947917Y-82900412D01*
X122943157Y-82905173D01*
X122941806Y-82903822D01*
X122935537Y-82908184D01*
X122925107Y-82921546D01*
X122907450Y-82927727D01*
X122892098Y-82938410D01*
X122875162Y-82939032D01*
X122859162Y-82944634D01*
X122840965Y-82940288D01*
X122822276Y-82940975D01*
X122807278Y-82932243D01*
X122791203Y-82928404D01*
X122770905Y-82911066D01*
X122763382Y-82906686D01*
X122759603Y-82902751D01*
X122757440Y-82900060D01*
X122755592Y-82898575D01*
X122750063Y-82892817D01*
X122737471Y-82868605D01*
X122721886Y-82846208D01*
X122720095Y-82835194D01*
X122717825Y-82830829D01*
X122718388Y-82824695D01*
X122715500Y-82806927D01*
X122715500Y-78724278D01*
X122735185Y-78657239D01*
X122787989Y-78611484D01*
X122792048Y-78609717D01*
X122852841Y-78584536D01*
X122978282Y-78488282D01*
X123074536Y-78362841D01*
X123081924Y-78345005D01*
X123125764Y-78290601D01*
X123192058Y-78268536D01*
X123259758Y-78285815D01*
X123284166Y-78304776D01*
X123295385Y-78315995D01*
X123480033Y-78450150D01*
X123683395Y-78553769D01*
X123900454Y-78624295D01*
X123964999Y-78634518D01*
X123965000Y-78634518D01*
X123965000Y-77628578D01*
X124047007Y-77675925D01*
X124174174Y-77710000D01*
X124305826Y-77710000D01*
X124432993Y-77675925D01*
X124515000Y-77628578D01*
X124515000Y-78634518D01*
X124579543Y-78624295D01*
X124579546Y-78624295D01*
X124796604Y-78553769D01*
X124999966Y-78450150D01*
X125184614Y-78315995D01*
X125345995Y-78154614D01*
X125480150Y-77969966D01*
X125583769Y-77766604D01*
X125654295Y-77549547D01*
X125654295Y-77549546D01*
X125664519Y-77485000D01*
X124658578Y-77485000D01*
X124705925Y-77402993D01*
X124740000Y-77275826D01*
X124740000Y-77144174D01*
X124705925Y-77017007D01*
X124658578Y-76935000D01*
X125664519Y-76935000D01*
X125654295Y-76870453D01*
X125654295Y-76870452D01*
X125583769Y-76653395D01*
X125480150Y-76450033D01*
X125345995Y-76265385D01*
X125184614Y-76104004D01*
X124999966Y-75969849D01*
X124796604Y-75866230D01*
X124579546Y-75795704D01*
X124515000Y-75785481D01*
X124515000Y-76791421D01*
X124432993Y-76744075D01*
X124305826Y-76710000D01*
X124174174Y-76710000D01*
X124047007Y-76744075D01*
X123965000Y-76791421D01*
X123965000Y-75785481D01*
X123900453Y-75795704D01*
X123900452Y-75795704D01*
X123683395Y-75866230D01*
X123480030Y-75969851D01*
X123295394Y-76103996D01*
X123295388Y-76104001D01*
X123284163Y-76115226D01*
X123222839Y-76148709D01*
X123153147Y-76143722D01*
X123097215Y-76101849D01*
X123081924Y-76074995D01*
X123074536Y-76057160D01*
X123074536Y-76057159D01*
X122978282Y-75931718D01*
X122852841Y-75835464D01*
X122828363Y-75825325D01*
X122706762Y-75774956D01*
X122706760Y-75774955D01*
X122589370Y-75759501D01*
X122589367Y-75759500D01*
X122589361Y-75759500D01*
X122589354Y-75759500D01*
X120810636Y-75759500D01*
X120693246Y-75774953D01*
X120693237Y-75774956D01*
X120547160Y-75835463D01*
X120421718Y-75931718D01*
X120325463Y-76057160D01*
X120264956Y-76203237D01*
X120262853Y-76211088D01*
X120261196Y-76210644D01*
X120236899Y-76265576D01*
X120178577Y-76304051D01*
X120142222Y-76309500D01*
X116841306Y-76309500D01*
X116726601Y-76332317D01*
X116726600Y-76332317D01*
X116667341Y-76344103D01*
X116667332Y-76344106D01*
X116503457Y-76411984D01*
X116503456Y-76411985D01*
X116382102Y-76493072D01*
X116382101Y-76493073D01*
X116355961Y-76510538D01*
X116355960Y-76510539D01*
X114215446Y-78651052D01*
X114154123Y-78684537D01*
X114108367Y-78685844D01*
X114065346Y-78679030D01*
X114005175Y-78669500D01*
X113754825Y-78669500D01*
X113672402Y-78682554D01*
X113507555Y-78708664D01*
X113507552Y-78708664D01*
X113269462Y-78786024D01*
X113269459Y-78786025D01*
X113209681Y-78816485D01*
X113153386Y-78830000D01*
X112056614Y-78830000D01*
X112000319Y-78816485D01*
X111940540Y-78786025D01*
X111940537Y-78786024D01*
X111702445Y-78708664D01*
X111537597Y-78682554D01*
X111455175Y-78669500D01*
X111204825Y-78669500D01*
X111122402Y-78682554D01*
X110957555Y-78708664D01*
X110957552Y-78708664D01*
X110719462Y-78786024D01*
X110719459Y-78786025D01*
X110659681Y-78816485D01*
X110603386Y-78830000D01*
X110450000Y-78830000D01*
X110423475Y-78858734D01*
X110407152Y-78876418D01*
X110347215Y-78912326D01*
X110277380Y-78910130D01*
X110219818Y-78870527D01*
X110217661Y-78867796D01*
X110197926Y-78842076D01*
X110072586Y-78745899D01*
X109926634Y-78685445D01*
X109926630Y-78685444D01*
X109809330Y-78670000D01*
X109055000Y-78670000D01*
X109055000Y-79659530D01*
X108972515Y-79625364D01*
X108845004Y-79600000D01*
X108714996Y-79600000D01*
X108587485Y-79625364D01*
X108505000Y-79659530D01*
X108505000Y-78670000D01*
X107750675Y-78670000D01*
X107633371Y-78685442D01*
X107633366Y-78685444D01*
X107487414Y-78745899D01*
X107362075Y-78842075D01*
X107265899Y-78967413D01*
X107205445Y-79113365D01*
X107205444Y-79113369D01*
X107190000Y-79230669D01*
X107190000Y-79985000D01*
X108179530Y-79985000D01*
X108145364Y-80067485D01*
X108120000Y-80194996D01*
X108120000Y-80325004D01*
X108145364Y-80452515D01*
X108179530Y-80535000D01*
X107190001Y-80535000D01*
X107190001Y-81289324D01*
X107205442Y-81406628D01*
X107205444Y-81406633D01*
X107265899Y-81552585D01*
X107362075Y-81677924D01*
X107487413Y-81774099D01*
X107529037Y-81791340D01*
X107583442Y-81835180D01*
X107605508Y-81901474D01*
X107588230Y-81969173D01*
X107569268Y-81993583D01*
X106486067Y-83076784D01*
X106424744Y-83110269D01*
X106374196Y-83110721D01*
X106273248Y-83090642D01*
X106217233Y-83079500D01*
X106217232Y-83079500D01*
X102186289Y-83079500D01*
X102119250Y-83059815D01*
X102073495Y-83007011D01*
X102062573Y-82947109D01*
X102062682Y-82945497D01*
X102062683Y-82945495D01*
X102065500Y-82903954D01*
X102065500Y-81956046D01*
X102062683Y-81914505D01*
X102062682Y-81914500D01*
X102062682Y-81914498D01*
X102062681Y-81914495D01*
X102052977Y-81875475D01*
X102055899Y-81805667D01*
X102085628Y-81757869D01*
X103249464Y-80594035D01*
X103275434Y-80555168D01*
X103348013Y-80446547D01*
X103373434Y-80385175D01*
X103415895Y-80282666D01*
X103450500Y-80108691D01*
X103450500Y-79931308D01*
X103450500Y-79904500D01*
X103470185Y-79837461D01*
X103522989Y-79791706D01*
X103574500Y-79780500D01*
X103623952Y-79780500D01*
X103623954Y-79780500D01*
X103665495Y-79777683D01*
X103845021Y-79733037D01*
X104010753Y-79650842D01*
X104154940Y-79534940D01*
X104270842Y-79390753D01*
X104353037Y-79225021D01*
X104397683Y-79045495D01*
X104400500Y-79003954D01*
X104400500Y-77556046D01*
X104397683Y-77514505D01*
X104390345Y-77485000D01*
X104369951Y-77402993D01*
X104353037Y-77334979D01*
X104270842Y-77169247D01*
X104220039Y-77106046D01*
X104154940Y-77025059D01*
X104052785Y-76942945D01*
X104010753Y-76909158D01*
X104010751Y-76909157D01*
X104010750Y-76909156D01*
X103845023Y-76826964D01*
X103845021Y-76826963D01*
X103665497Y-76782317D01*
X103665501Y-76782317D01*
X103634339Y-76780204D01*
X103623954Y-76779500D01*
X101476046Y-76779500D01*
X101464177Y-76780304D01*
X101434500Y-76782317D01*
X101254978Y-76826963D01*
X101254976Y-76826964D01*
X101089249Y-76909156D01*
X100945059Y-77025059D01*
X100829156Y-77169249D01*
X100746964Y-77334976D01*
X100746963Y-77334978D01*
X100702317Y-77514500D01*
X100699500Y-77556048D01*
X100699500Y-79003951D01*
X100702317Y-79045499D01*
X100739918Y-79196692D01*
X100746963Y-79225021D01*
X100746963Y-79225022D01*
X100746964Y-79225023D01*
X100829156Y-79390750D01*
X100945059Y-79534940D01*
X101025997Y-79600000D01*
X101089247Y-79650842D01*
X101254979Y-79733037D01*
X101289186Y-79741544D01*
X101349492Y-79776824D01*
X101381152Y-79839110D01*
X101374111Y-79908624D01*
X101346941Y-79949559D01*
X100153319Y-81143181D01*
X100091996Y-81176666D01*
X100065638Y-81179500D01*
X98991046Y-81179500D01*
X98979177Y-81180304D01*
X98949500Y-81182317D01*
X98769978Y-81226963D01*
X98769976Y-81226964D01*
X98604249Y-81309156D01*
X98460059Y-81425059D01*
X98344156Y-81569249D01*
X98261964Y-81734976D01*
X98261963Y-81734978D01*
X98217317Y-81914500D01*
X98217317Y-81914505D01*
X98214500Y-81956046D01*
X98214500Y-82903954D01*
X98217317Y-82945495D01*
X98217317Y-82945497D01*
X98217427Y-82947109D01*
X98202324Y-83015327D01*
X98152737Y-83064550D01*
X98093711Y-83079500D01*
X96514500Y-83079500D01*
X96447461Y-83059815D01*
X96401706Y-83007011D01*
X96390500Y-82955500D01*
X96390500Y-81106048D01*
X96388185Y-81071911D01*
X96387683Y-81064505D01*
X96343037Y-80884979D01*
X96260842Y-80719247D01*
X96185299Y-80625268D01*
X96144940Y-80575059D01*
X96024242Y-80478039D01*
X96000753Y-80459158D01*
X96000751Y-80459157D01*
X96000750Y-80459156D01*
X95835023Y-80376964D01*
X95835021Y-80376963D01*
X95655497Y-80332317D01*
X95655501Y-80332317D01*
X95624339Y-80330204D01*
X95613954Y-80329500D01*
X94166046Y-80329500D01*
X94154177Y-80330304D01*
X94124500Y-80332317D01*
X93944978Y-80376963D01*
X93944976Y-80376964D01*
X93779249Y-80459156D01*
X93635059Y-80575059D01*
X93519156Y-80719249D01*
X93436964Y-80884976D01*
X93436963Y-80884978D01*
X93392317Y-81064500D01*
X93389500Y-81106048D01*
X93389500Y-83253951D01*
X93392317Y-83295499D01*
X93436963Y-83475021D01*
X93436964Y-83475023D01*
X93519156Y-83640750D01*
X93635062Y-83784943D01*
X93644186Y-83792277D01*
X93684105Y-83849620D01*
X93686684Y-83919443D01*
X93651104Y-83979575D01*
X93644187Y-83985569D01*
X93595060Y-84025059D01*
X93479156Y-84169249D01*
X93396964Y-84334976D01*
X93396963Y-84334978D01*
X93352317Y-84514500D01*
X93349500Y-84556048D01*
X93349500Y-86703951D01*
X93352317Y-86745499D01*
X93396963Y-86925021D01*
X93396964Y-86925023D01*
X93479156Y-87090750D01*
X93479157Y-87090751D01*
X93479158Y-87090753D01*
X93512945Y-87132785D01*
X93595059Y-87234940D01*
X93669776Y-87294999D01*
X93739247Y-87350842D01*
X93904979Y-87433037D01*
X94084501Y-87477682D01*
X94084502Y-87477682D01*
X94084505Y-87477683D01*
X94126046Y-87480500D01*
X94126048Y-87480500D01*
X95573952Y-87480500D01*
X95573954Y-87480500D01*
X95615495Y-87477683D01*
X95795021Y-87433037D01*
X95960753Y-87350842D01*
X96104940Y-87234940D01*
X96220842Y-87090753D01*
X96303037Y-86925021D01*
X96347683Y-86745495D01*
X96350500Y-86703954D01*
X96350500Y-85454361D01*
X96370185Y-85387322D01*
X96386819Y-85366680D01*
X96836680Y-84916819D01*
X96898003Y-84883334D01*
X96924361Y-84880500D01*
X98093711Y-84880500D01*
X98160750Y-84900185D01*
X98206505Y-84952989D01*
X98217427Y-85012891D01*
X98217317Y-85014502D01*
X98217317Y-85014505D01*
X98216836Y-85021598D01*
X98214500Y-85056048D01*
X98214500Y-86003951D01*
X98217317Y-86045499D01*
X98261963Y-86225021D01*
X98261964Y-86225023D01*
X98344156Y-86390750D01*
X98460059Y-86534940D01*
X98498651Y-86565961D01*
X98604247Y-86650842D01*
X98769979Y-86733037D01*
X98949501Y-86777682D01*
X98949502Y-86777682D01*
X98949505Y-86777683D01*
X98991046Y-86780500D01*
X99115500Y-86780500D01*
X99182539Y-86800185D01*
X99228294Y-86852989D01*
X99239500Y-86904500D01*
X99239500Y-87158696D01*
X99274103Y-87332659D01*
X99274104Y-87332663D01*
X99274105Y-87332666D01*
X99278844Y-87344106D01*
X99301217Y-87398120D01*
X99301220Y-87398126D01*
X99303363Y-87403299D01*
X99341987Y-87496547D01*
X99388760Y-87566547D01*
X99392419Y-87572023D01*
X99440537Y-87644038D01*
X99524318Y-87727819D01*
X99557803Y-87789142D01*
X99552819Y-87858834D01*
X99510947Y-87914767D01*
X99445483Y-87939184D01*
X99436637Y-87939500D01*
X97436046Y-87939500D01*
X97424177Y-87940304D01*
X97394500Y-87942317D01*
X97214978Y-87986963D01*
X97214976Y-87986964D01*
X97049249Y-88069156D01*
X96905059Y-88185059D01*
X96789158Y-88329245D01*
X96770543Y-88366781D01*
X96719055Y-88470596D01*
X96708278Y-88482257D01*
X96701682Y-88496703D01*
X96685053Y-88507389D01*
X96671637Y-88521907D01*
X96655543Y-88526353D01*
X96642904Y-88534477D01*
X96607969Y-88539500D01*
X96450839Y-88539500D01*
X96383800Y-88519815D01*
X96338045Y-88467011D01*
X96330504Y-88445426D01*
X96322579Y-88413558D01*
X96303037Y-88334979D01*
X96220842Y-88169247D01*
X96149150Y-88080059D01*
X96104940Y-88025059D01*
X95980154Y-87924753D01*
X95960753Y-87909158D01*
X95960751Y-87909157D01*
X95960750Y-87909156D01*
X95795023Y-87826964D01*
X95795021Y-87826963D01*
X95615497Y-87782317D01*
X95615501Y-87782317D01*
X95584339Y-87780204D01*
X95573954Y-87779500D01*
X94126046Y-87779500D01*
X94114177Y-87780304D01*
X94084500Y-87782317D01*
X93904978Y-87826963D01*
X93904976Y-87826964D01*
X93739249Y-87909156D01*
X93595059Y-88025059D01*
X93479156Y-88169249D01*
X93396964Y-88334976D01*
X93396963Y-88334978D01*
X93352317Y-88514500D01*
X93349500Y-88556048D01*
X93349500Y-89551137D01*
X93329815Y-89618176D01*
X93313181Y-89638818D01*
X90855029Y-92096969D01*
X90793706Y-92130454D01*
X90729030Y-92127219D01*
X90558214Y-92071717D01*
X90307451Y-92032000D01*
X90307446Y-92032000D01*
X90053554Y-92032000D01*
X90053549Y-92032000D01*
X89802787Y-92071716D01*
X89561318Y-92150175D01*
X89335103Y-92265438D01*
X89129698Y-92414674D01*
X88950174Y-92594198D01*
X88800938Y-92799603D01*
X88685675Y-93025818D01*
X88607216Y-93267287D01*
X88567500Y-93518048D01*
X86429856Y-93518048D01*
X86429839Y-93513656D01*
X86410917Y-88566292D01*
X86405569Y-87168088D01*
X88568000Y-87168088D01*
X88568000Y-87421911D01*
X88607704Y-87672591D01*
X88686139Y-87913987D01*
X88801368Y-88140137D01*
X88862419Y-88224168D01*
X88862421Y-88224169D01*
X89549968Y-87536622D01*
X89582323Y-87614732D01*
X89656193Y-87725287D01*
X89750213Y-87819307D01*
X89860768Y-87893177D01*
X89938876Y-87925530D01*
X89251329Y-88613077D01*
X89335365Y-88674133D01*
X89561512Y-88789360D01*
X89802908Y-88867795D01*
X90053589Y-88907500D01*
X90307411Y-88907500D01*
X90558091Y-88867795D01*
X90799487Y-88789360D01*
X91025626Y-88674137D01*
X91025632Y-88674133D01*
X91109668Y-88613077D01*
X91109669Y-88613076D01*
X90422123Y-87925530D01*
X90500232Y-87893177D01*
X90610787Y-87819307D01*
X90704807Y-87725287D01*
X90778677Y-87614732D01*
X90811030Y-87536623D01*
X91498576Y-88224169D01*
X91498577Y-88224168D01*
X91559633Y-88140132D01*
X91559637Y-88140126D01*
X91674860Y-87913987D01*
X91753295Y-87672591D01*
X91793000Y-87421911D01*
X91793000Y-87168088D01*
X91753295Y-86917408D01*
X91674860Y-86676012D01*
X91559633Y-86449865D01*
X91498577Y-86365830D01*
X91498577Y-86365829D01*
X90811030Y-87053376D01*
X90778677Y-86975268D01*
X90704807Y-86864713D01*
X90610787Y-86770693D01*
X90500232Y-86696823D01*
X90422122Y-86664468D01*
X91109669Y-85976921D01*
X91109668Y-85976919D01*
X91025637Y-85915868D01*
X90799487Y-85800639D01*
X90558091Y-85722204D01*
X90307411Y-85682500D01*
X90053589Y-85682500D01*
X89802908Y-85722204D01*
X89561512Y-85800639D01*
X89335367Y-85915865D01*
X89251330Y-85976921D01*
X89938877Y-86664468D01*
X89860768Y-86696823D01*
X89750213Y-86770693D01*
X89656193Y-86864713D01*
X89582323Y-86975268D01*
X89549968Y-87053377D01*
X88862421Y-86365830D01*
X88801365Y-86449867D01*
X88686139Y-86676012D01*
X88607704Y-86917408D01*
X88568000Y-87168088D01*
X86405569Y-87168088D01*
X86405552Y-87163696D01*
X86401196Y-86024654D01*
X86386630Y-82216292D01*
X86381282Y-80818088D01*
X88568000Y-80818088D01*
X88568000Y-81071911D01*
X88607704Y-81322591D01*
X88686139Y-81563987D01*
X88801368Y-81790137D01*
X88862419Y-81874168D01*
X88862421Y-81874169D01*
X89549968Y-81186622D01*
X89582323Y-81264732D01*
X89656193Y-81375287D01*
X89750213Y-81469307D01*
X89860768Y-81543177D01*
X89938876Y-81575530D01*
X89251329Y-82263077D01*
X89335365Y-82324133D01*
X89561512Y-82439360D01*
X89802908Y-82517795D01*
X90053589Y-82557500D01*
X90307411Y-82557500D01*
X90558091Y-82517795D01*
X90799487Y-82439360D01*
X91025626Y-82324137D01*
X91025632Y-82324133D01*
X91109668Y-82263077D01*
X91109669Y-82263076D01*
X90422123Y-81575530D01*
X90500232Y-81543177D01*
X90610787Y-81469307D01*
X90704807Y-81375287D01*
X90778677Y-81264732D01*
X90811030Y-81186623D01*
X91498576Y-81874169D01*
X91498577Y-81874168D01*
X91559633Y-81790132D01*
X91559637Y-81790126D01*
X91674860Y-81563987D01*
X91753295Y-81322591D01*
X91793000Y-81071911D01*
X91793000Y-80818088D01*
X91753295Y-80567408D01*
X91674860Y-80326012D01*
X91559633Y-80099865D01*
X91498577Y-80015830D01*
X91498577Y-80015829D01*
X90811030Y-80703376D01*
X90778677Y-80625268D01*
X90704807Y-80514713D01*
X90610787Y-80420693D01*
X90500232Y-80346823D01*
X90422122Y-80314468D01*
X91109669Y-79626921D01*
X91109668Y-79626919D01*
X91025637Y-79565868D01*
X90799487Y-79450639D01*
X90558091Y-79372204D01*
X90307411Y-79332500D01*
X90053589Y-79332500D01*
X89802908Y-79372204D01*
X89561512Y-79450639D01*
X89335367Y-79565865D01*
X89251330Y-79626921D01*
X89938877Y-80314468D01*
X89860768Y-80346823D01*
X89750213Y-80420693D01*
X89656193Y-80514713D01*
X89582323Y-80625268D01*
X89549968Y-80703377D01*
X88862421Y-80015830D01*
X88801365Y-80099867D01*
X88686139Y-80326012D01*
X88607704Y-80567408D01*
X88568000Y-80818088D01*
X86381282Y-80818088D01*
X86381265Y-80813696D01*
X86376909Y-79674654D01*
X86356995Y-74468048D01*
X88567500Y-74468048D01*
X88567500Y-74721951D01*
X88607216Y-74972712D01*
X88685675Y-75214181D01*
X88800938Y-75440396D01*
X88950172Y-75645799D01*
X89129701Y-75825328D01*
X89335104Y-75974562D01*
X89441984Y-76029020D01*
X89561318Y-76089824D01*
X89561320Y-76089824D01*
X89561323Y-76089826D01*
X89639496Y-76115226D01*
X89802787Y-76168283D01*
X90053549Y-76208000D01*
X90053554Y-76208000D01*
X90307451Y-76208000D01*
X90558212Y-76168283D01*
X90618454Y-76148709D01*
X90799677Y-76089826D01*
X91025896Y-75974562D01*
X91163302Y-75874730D01*
X91229106Y-75851250D01*
X91297160Y-75867075D01*
X91323867Y-75887367D01*
X93353181Y-77916681D01*
X93386666Y-77978004D01*
X93389500Y-78004362D01*
X93389500Y-79253951D01*
X93392317Y-79295499D01*
X93436963Y-79475021D01*
X93436964Y-79475023D01*
X93519156Y-79640750D01*
X93635059Y-79784940D01*
X93700398Y-79837461D01*
X93779247Y-79900842D01*
X93944979Y-79983037D01*
X94124501Y-80027682D01*
X94124502Y-80027682D01*
X94124505Y-80027683D01*
X94166046Y-80030500D01*
X94166048Y-80030500D01*
X95613952Y-80030500D01*
X95613954Y-80030500D01*
X95655495Y-80027683D01*
X95835021Y-79983037D01*
X96000753Y-79900842D01*
X96144940Y-79784940D01*
X96260842Y-79640753D01*
X96343037Y-79475021D01*
X96387683Y-79295495D01*
X96390500Y-79253954D01*
X96390500Y-79204500D01*
X96393050Y-79195814D01*
X96391762Y-79186853D01*
X96402740Y-79162812D01*
X96410185Y-79137461D01*
X96417025Y-79131533D01*
X96420787Y-79123297D01*
X96443021Y-79109007D01*
X96462989Y-79091706D01*
X96473503Y-79089418D01*
X96479565Y-79085523D01*
X96514500Y-79080500D01*
X96614083Y-79080500D01*
X96681122Y-79100185D01*
X96726877Y-79152989D01*
X96734415Y-79174567D01*
X96741860Y-79204500D01*
X96746963Y-79225022D01*
X96746964Y-79225023D01*
X96829156Y-79390750D01*
X96945059Y-79534940D01*
X97025997Y-79600000D01*
X97089247Y-79650842D01*
X97254979Y-79733037D01*
X97434501Y-79777682D01*
X97434502Y-79777682D01*
X97434505Y-79777683D01*
X97476046Y-79780500D01*
X97476048Y-79780500D01*
X99623952Y-79780500D01*
X99623954Y-79780500D01*
X99665495Y-79777683D01*
X99845021Y-79733037D01*
X100010753Y-79650842D01*
X100154940Y-79534940D01*
X100270842Y-79390753D01*
X100353037Y-79225021D01*
X100397683Y-79045495D01*
X100400500Y-79003954D01*
X100400500Y-77556046D01*
X100397683Y-77514505D01*
X100390345Y-77485000D01*
X100369951Y-77402993D01*
X100353037Y-77334979D01*
X100270842Y-77169247D01*
X100220039Y-77106046D01*
X100154940Y-77025059D01*
X100052785Y-76942945D01*
X100010753Y-76909158D01*
X100010751Y-76909157D01*
X100010750Y-76909156D01*
X99845023Y-76826964D01*
X99845021Y-76826963D01*
X99665497Y-76782317D01*
X99665501Y-76782317D01*
X99634339Y-76780204D01*
X99623954Y-76779500D01*
X97476046Y-76779500D01*
X97464177Y-76780304D01*
X97434500Y-76782317D01*
X97254978Y-76826963D01*
X97254976Y-76826964D01*
X97089249Y-76909156D01*
X96945059Y-77025059D01*
X96829157Y-77169247D01*
X96815996Y-77195785D01*
X96808651Y-77210594D01*
X96797874Y-77222255D01*
X96791277Y-77236703D01*
X96774646Y-77247390D01*
X96761232Y-77261906D01*
X96745140Y-77266352D01*
X96732499Y-77274477D01*
X96697564Y-77279500D01*
X96514500Y-77279500D01*
X96447461Y-77259815D01*
X96401706Y-77207011D01*
X96390500Y-77155500D01*
X96390500Y-77106048D01*
X96390500Y-77106046D01*
X96387683Y-77064505D01*
X96377873Y-77025060D01*
X96375871Y-77017007D01*
X96343037Y-76884979D01*
X96260842Y-76719247D01*
X96207908Y-76653395D01*
X96144940Y-76575059D01*
X96042785Y-76492945D01*
X96000753Y-76459158D01*
X96000751Y-76459157D01*
X96000750Y-76459156D01*
X95835023Y-76376964D01*
X95835021Y-76376963D01*
X95655497Y-76332317D01*
X95655501Y-76332317D01*
X95624339Y-76330204D01*
X95613954Y-76329500D01*
X95613952Y-76329500D01*
X94364362Y-76329500D01*
X94297323Y-76309815D01*
X94276681Y-76293181D01*
X92219035Y-74235535D01*
X92219030Y-74235531D01*
X92164622Y-74199178D01*
X92164616Y-74199175D01*
X92159959Y-74196063D01*
X92071547Y-74136987D01*
X91989606Y-74103046D01*
X91907666Y-74069105D01*
X91907658Y-74069103D01*
X91761001Y-74039931D01*
X91699090Y-74007546D01*
X91674707Y-73974609D01*
X91560062Y-73749604D01*
X91410828Y-73544201D01*
X91231299Y-73364672D01*
X91025896Y-73215438D01*
X90799681Y-73100175D01*
X90558212Y-73021716D01*
X90307451Y-72982000D01*
X90307446Y-72982000D01*
X90053554Y-72982000D01*
X90053549Y-72982000D01*
X89802787Y-73021716D01*
X89561318Y-73100175D01*
X89335103Y-73215438D01*
X89129698Y-73364674D01*
X88950174Y-73544198D01*
X88800938Y-73749603D01*
X88685675Y-73975818D01*
X88607216Y-74217287D01*
X88567500Y-74468048D01*
X86356995Y-74468048D01*
X86356978Y-74463656D01*
X86349892Y-72611048D01*
X86336351Y-69070645D01*
X96829500Y-69070645D01*
X96829500Y-71149363D01*
X96844953Y-71266753D01*
X96844956Y-71266762D01*
X96905464Y-71412841D01*
X97001718Y-71538282D01*
X97127159Y-71634536D01*
X97273238Y-71695044D01*
X97390639Y-71710500D01*
X99469360Y-71710499D01*
X99469363Y-71710499D01*
X99586753Y-71695046D01*
X99586757Y-71695044D01*
X99586762Y-71695044D01*
X99732841Y-71634536D01*
X99858282Y-71538282D01*
X99954536Y-71412841D01*
X100015044Y-71266762D01*
X100030500Y-71149361D01*
X100030499Y-69070640D01*
X100030499Y-69070639D01*
X100030499Y-69070636D01*
X100015046Y-68953246D01*
X100015044Y-68953239D01*
X100015044Y-68953238D01*
X99954536Y-68807159D01*
X99858282Y-68681718D01*
X99732841Y-68585464D01*
X99586762Y-68524956D01*
X99586760Y-68524955D01*
X99469370Y-68509501D01*
X99469367Y-68509500D01*
X99469361Y-68509500D01*
X99469354Y-68509500D01*
X97390636Y-68509500D01*
X97273246Y-68524953D01*
X97273237Y-68524956D01*
X97127160Y-68585463D01*
X97001718Y-68681718D01*
X96905463Y-68807160D01*
X96844956Y-68953237D01*
X96844955Y-68953239D01*
X96835244Y-69027007D01*
X96829501Y-69070636D01*
X96829500Y-69070645D01*
X86336351Y-69070645D01*
X86332065Y-67949999D01*
X107140000Y-67949999D01*
X107140000Y-67950000D01*
X107140000Y-70190000D01*
X107640000Y-70690000D01*
X107840500Y-70690000D01*
X107907539Y-70709685D01*
X107953294Y-70762489D01*
X107964500Y-70814000D01*
X107964500Y-71986927D01*
X107944815Y-72053966D01*
X107926429Y-72074413D01*
X107927318Y-72075302D01*
X107922561Y-72080058D01*
X107806656Y-72224249D01*
X107724464Y-72389976D01*
X107724463Y-72389978D01*
X107679817Y-72569500D01*
X107677000Y-72611048D01*
X107677000Y-73708951D01*
X107679817Y-73750499D01*
X107724463Y-73930021D01*
X107724464Y-73930023D01*
X107806656Y-74095750D01*
X107806657Y-74095751D01*
X107806658Y-74095753D01*
X107839803Y-74136987D01*
X107922559Y-74239940D01*
X108004673Y-74305945D01*
X108066747Y-74355842D01*
X108232479Y-74438037D01*
X108412001Y-74482682D01*
X108412002Y-74482682D01*
X108412005Y-74482683D01*
X108453546Y-74485500D01*
X108453548Y-74485500D01*
X109276452Y-74485500D01*
X109276454Y-74485500D01*
X109317995Y-74482683D01*
X109497521Y-74438037D01*
X109663253Y-74355842D01*
X109807440Y-74239940D01*
X109807444Y-74239934D01*
X109812189Y-74235190D01*
X109813449Y-74236450D01*
X109863512Y-74201598D01*
X109933334Y-74199016D01*
X109993468Y-74234592D01*
X109997011Y-74238681D01*
X109997915Y-74239585D01*
X110142018Y-74355418D01*
X110307650Y-74437564D01*
X110487068Y-74482184D01*
X110528588Y-74484999D01*
X110664999Y-74484999D01*
X111215000Y-74484999D01*
X111351411Y-74484999D01*
X111351417Y-74484998D01*
X111392923Y-74482185D01*
X111392925Y-74482185D01*
X111572349Y-74437564D01*
X111737981Y-74355418D01*
X111882084Y-74239585D01*
X111882085Y-74239584D01*
X111997918Y-74095481D01*
X112080064Y-73929849D01*
X112124684Y-73750431D01*
X112127500Y-73708911D01*
X112127500Y-73435000D01*
X111215000Y-73435000D01*
X111215000Y-74484999D01*
X110664999Y-74484999D01*
X110665000Y-74484998D01*
X110665000Y-72885000D01*
X111215000Y-72885000D01*
X112127499Y-72885000D01*
X112127499Y-72611089D01*
X112127498Y-72611082D01*
X112124685Y-72569576D01*
X112124685Y-72569574D01*
X112080064Y-72390150D01*
X111997918Y-72224518D01*
X111882085Y-72080415D01*
X111882084Y-72080414D01*
X111737981Y-71964581D01*
X111572349Y-71882435D01*
X111392931Y-71837815D01*
X111351412Y-71835000D01*
X111215000Y-71835000D01*
X111215000Y-72885000D01*
X110665000Y-72885000D01*
X110665000Y-71835000D01*
X110528588Y-71835000D01*
X110528581Y-71835001D01*
X110487076Y-71837814D01*
X110487074Y-71837814D01*
X110307650Y-71882435D01*
X110142018Y-71964581D01*
X109997917Y-72080412D01*
X109993157Y-72085173D01*
X109991806Y-72083822D01*
X109985537Y-72088184D01*
X109975107Y-72101546D01*
X109957450Y-72107727D01*
X109942098Y-72118410D01*
X109925162Y-72119032D01*
X109909162Y-72124634D01*
X109890965Y-72120288D01*
X109872276Y-72120975D01*
X109857278Y-72112243D01*
X109841203Y-72108404D01*
X109820905Y-72091066D01*
X109813382Y-72086686D01*
X109809603Y-72082751D01*
X109807440Y-72080060D01*
X109805592Y-72078575D01*
X109800063Y-72072817D01*
X109787471Y-72048605D01*
X109771886Y-72026208D01*
X109770095Y-72015194D01*
X109767825Y-72010829D01*
X109768388Y-72004695D01*
X109765500Y-71986927D01*
X109765500Y-70609308D01*
X109785185Y-70542269D01*
X109802709Y-70520746D01*
X110012882Y-70314776D01*
X110050658Y-70277756D01*
X110049483Y-70013516D01*
X110068868Y-69946396D01*
X110085800Y-69925289D01*
X110710949Y-69300141D01*
X110745116Y-69382627D01*
X110817345Y-69490725D01*
X110909275Y-69582655D01*
X111017373Y-69654884D01*
X111099857Y-69689050D01*
X110416937Y-70371969D01*
X110496657Y-70429889D01*
X110719647Y-70543509D01*
X110957673Y-70620849D01*
X111204859Y-70660000D01*
X111455141Y-70660000D01*
X111702326Y-70620849D01*
X111940352Y-70543509D01*
X112163334Y-70429893D01*
X112163340Y-70429889D01*
X112243060Y-70371969D01*
X112243061Y-70371968D01*
X111560142Y-69689049D01*
X111642627Y-69654884D01*
X111750725Y-69582655D01*
X111842655Y-69490725D01*
X111914884Y-69382627D01*
X111949050Y-69300142D01*
X112653681Y-70004773D01*
X112687166Y-70066096D01*
X112690000Y-70092454D01*
X112690000Y-70342554D01*
X113011114Y-70670500D01*
X113040000Y-70700000D01*
X115020001Y-70700000D01*
X115519999Y-70210001D01*
X115519999Y-70210000D01*
X115520000Y-70210000D01*
X115520000Y-70209998D01*
X115525685Y-70196469D01*
X115569800Y-70142288D01*
X115636205Y-70120558D01*
X115640005Y-70120500D01*
X120207222Y-70120500D01*
X120274261Y-70140185D01*
X120320016Y-70192989D01*
X120327487Y-70219009D01*
X120327853Y-70218912D01*
X120329956Y-70226762D01*
X120351401Y-70278536D01*
X120390464Y-70372841D01*
X120486718Y-70498282D01*
X120612159Y-70594536D01*
X120758238Y-70655044D01*
X120875639Y-70670500D01*
X122654360Y-70670499D01*
X122654363Y-70670499D01*
X122771753Y-70655046D01*
X122771757Y-70655044D01*
X122771762Y-70655044D01*
X122917841Y-70594536D01*
X123043282Y-70498282D01*
X123139536Y-70372841D01*
X123146924Y-70355005D01*
X123190764Y-70300601D01*
X123257058Y-70278536D01*
X123324758Y-70295815D01*
X123349166Y-70314776D01*
X123360385Y-70325995D01*
X123545033Y-70460150D01*
X123748395Y-70563769D01*
X123965454Y-70634295D01*
X124029999Y-70644518D01*
X124030000Y-70644518D01*
X124030000Y-69638578D01*
X124112007Y-69685925D01*
X124239174Y-69720000D01*
X124370826Y-69720000D01*
X124497993Y-69685925D01*
X124580000Y-69638578D01*
X124580000Y-70644518D01*
X124644543Y-70634295D01*
X124644546Y-70634295D01*
X124861604Y-70563769D01*
X125064966Y-70460150D01*
X125249614Y-70325995D01*
X125410995Y-70164614D01*
X125545150Y-69979966D01*
X125648769Y-69776604D01*
X125719295Y-69559547D01*
X125719295Y-69559546D01*
X125729519Y-69495000D01*
X124723578Y-69495000D01*
X124770925Y-69412993D01*
X124805000Y-69285826D01*
X124805000Y-69154174D01*
X124770925Y-69027007D01*
X124723578Y-68945000D01*
X125729519Y-68945000D01*
X125719295Y-68880453D01*
X125719295Y-68880452D01*
X125648769Y-68663395D01*
X125545150Y-68460033D01*
X125410995Y-68275385D01*
X125249614Y-68114004D01*
X125064966Y-67979849D01*
X124861604Y-67876230D01*
X124693132Y-67821490D01*
X124580000Y-67833182D01*
X124580000Y-68801421D01*
X124497993Y-68754075D01*
X124370826Y-68720000D01*
X124239174Y-68720000D01*
X124112007Y-68754075D01*
X124030000Y-68801421D01*
X124030000Y-67795480D01*
X123997814Y-67800578D01*
X123867119Y-67837654D01*
X123748396Y-67876230D01*
X123545030Y-67979851D01*
X123360394Y-68113996D01*
X123360388Y-68114001D01*
X123349163Y-68125226D01*
X123287839Y-68158709D01*
X123218147Y-68153722D01*
X123162215Y-68111849D01*
X123146924Y-68084995D01*
X123139536Y-68067160D01*
X123139536Y-68067159D01*
X123043282Y-67941718D01*
X123043277Y-67941714D01*
X123029013Y-67930768D01*
X122987810Y-67874340D01*
X122980500Y-67832393D01*
X122980500Y-67443071D01*
X122988805Y-67414786D01*
X122994492Y-67385849D01*
X122998869Y-67380513D01*
X123000185Y-67376032D01*
X123015070Y-67357175D01*
X123020593Y-67351424D01*
X123022440Y-67349940D01*
X123024599Y-67347253D01*
X123028390Y-67343307D01*
X123054143Y-67328563D01*
X123078512Y-67311598D01*
X123084140Y-67311389D01*
X123089026Y-67308593D01*
X123118663Y-67310113D01*
X123148334Y-67309016D01*
X123153181Y-67311883D01*
X123158803Y-67312172D01*
X123182914Y-67329473D01*
X123208468Y-67344592D01*
X123212011Y-67348681D01*
X123212915Y-67349585D01*
X123357018Y-67465418D01*
X123522650Y-67547564D01*
X123702068Y-67592184D01*
X123743587Y-67594999D01*
X123813781Y-67594999D01*
X124430000Y-67594999D01*
X124472228Y-67594999D01*
X124685045Y-67573005D01*
X124787349Y-67547564D01*
X124952981Y-67465418D01*
X125097084Y-67349585D01*
X125097085Y-67349584D01*
X125212918Y-67205481D01*
X125295064Y-67039849D01*
X125339684Y-66860431D01*
X125342500Y-66818911D01*
X125342500Y-66545000D01*
X124430000Y-66545000D01*
X124430000Y-67594999D01*
X123813781Y-67594999D01*
X123880000Y-67576214D01*
X123880000Y-65995000D01*
X124430000Y-65995000D01*
X125342499Y-65995000D01*
X125342499Y-65721089D01*
X125342498Y-65721082D01*
X125339685Y-65679576D01*
X125339685Y-65679574D01*
X125295064Y-65500150D01*
X125212918Y-65334518D01*
X125097085Y-65190415D01*
X125097084Y-65190414D01*
X124952981Y-65074581D01*
X124787349Y-64992435D01*
X124607931Y-64947815D01*
X124566412Y-64945000D01*
X124430000Y-64945000D01*
X124430000Y-65995000D01*
X123880000Y-65995000D01*
X123880000Y-64945000D01*
X123743588Y-64945000D01*
X123743581Y-64945001D01*
X123702076Y-64947814D01*
X123702074Y-64947814D01*
X123522650Y-64992435D01*
X123357018Y-65074581D01*
X123212917Y-65190412D01*
X123208157Y-65195173D01*
X123206806Y-65193822D01*
X123157098Y-65228410D01*
X123087276Y-65230975D01*
X123027150Y-65195384D01*
X123023178Y-65190798D01*
X123022437Y-65190057D01*
X122878779Y-65074581D01*
X122878253Y-65074158D01*
X122878251Y-65074157D01*
X122878250Y-65074156D01*
X122712523Y-64991964D01*
X122712521Y-64991963D01*
X122532997Y-64947317D01*
X122533001Y-64947317D01*
X122501839Y-64945204D01*
X122491454Y-64944500D01*
X121668546Y-64944500D01*
X121656677Y-64945304D01*
X121627000Y-64947317D01*
X121447478Y-64991963D01*
X121447476Y-64991964D01*
X121281749Y-65074156D01*
X121137559Y-65190059D01*
X121021656Y-65334249D01*
X120939464Y-65499976D01*
X120939463Y-65499978D01*
X120894817Y-65679500D01*
X120892000Y-65721048D01*
X120892000Y-66818951D01*
X120894817Y-66860499D01*
X120939463Y-67040021D01*
X120939464Y-67040023D01*
X121021656Y-67205750D01*
X121137563Y-67349944D01*
X121142314Y-67354695D01*
X121140985Y-67356023D01*
X121154385Y-67376874D01*
X121173081Y-67403693D01*
X121173577Y-67406736D01*
X121174477Y-67408137D01*
X121179500Y-67443072D01*
X121179500Y-67645500D01*
X121159815Y-67712539D01*
X121107011Y-67758294D01*
X121055501Y-67769500D01*
X120875636Y-67769500D01*
X120758246Y-67784953D01*
X120758237Y-67784956D01*
X120612160Y-67845463D01*
X120486718Y-67941718D01*
X120390463Y-68067160D01*
X120329956Y-68213237D01*
X120327853Y-68221088D01*
X120326196Y-68220644D01*
X120301899Y-68275576D01*
X120243577Y-68314051D01*
X120207222Y-68319500D01*
X115644000Y-68319500D01*
X115576961Y-68299815D01*
X115531206Y-68247011D01*
X115520000Y-68195500D01*
X115520000Y-67960000D01*
X115020000Y-67460000D01*
X113050000Y-67460000D01*
X112878769Y-67645500D01*
X112690000Y-67849999D01*
X112690000Y-68047545D01*
X112670315Y-68114584D01*
X112653681Y-68135226D01*
X111949049Y-68839857D01*
X111914884Y-68757373D01*
X111842655Y-68649275D01*
X111750725Y-68557345D01*
X111642627Y-68485116D01*
X111560141Y-68450949D01*
X112243061Y-67768029D01*
X112243060Y-67768028D01*
X112163345Y-67710112D01*
X111940352Y-67596490D01*
X111702326Y-67519150D01*
X111455141Y-67480000D01*
X111204859Y-67480000D01*
X110957673Y-67519150D01*
X110719647Y-67596490D01*
X110496661Y-67710108D01*
X110416938Y-67768029D01*
X111099858Y-68450949D01*
X111017373Y-68485116D01*
X110909275Y-68557345D01*
X110817345Y-68649275D01*
X110745116Y-68757373D01*
X110710949Y-68839858D01*
X110077381Y-68206290D01*
X110043896Y-68144967D01*
X110041063Y-68119166D01*
X110039963Y-67871532D01*
X109610000Y-67450000D01*
X107640000Y-67450000D01*
X107639999Y-67450000D01*
X107140000Y-67949999D01*
X86332065Y-67949999D01*
X86320721Y-64984071D01*
X96830000Y-64984071D01*
X96830000Y-65235928D01*
X96869397Y-65484669D01*
X96947219Y-65724184D01*
X97061557Y-65948583D01*
X97120870Y-66030219D01*
X97120871Y-66030220D01*
X97939565Y-65211525D01*
X97964075Y-65302993D01*
X98029901Y-65417007D01*
X98122993Y-65510099D01*
X98237007Y-65575925D01*
X98328473Y-65600433D01*
X97509778Y-66419128D01*
X97591416Y-66478442D01*
X97815815Y-66592780D01*
X98055330Y-66670602D01*
X98304072Y-66710000D01*
X98555928Y-66710000D01*
X98804669Y-66670602D01*
X99044184Y-66592780D01*
X99268582Y-66478443D01*
X99350219Y-66419128D01*
X99350220Y-66419127D01*
X98531526Y-65600433D01*
X98622993Y-65575925D01*
X98737007Y-65510099D01*
X98830099Y-65417007D01*
X98895925Y-65302993D01*
X98920433Y-65211526D01*
X99739127Y-66030220D01*
X99739128Y-66030219D01*
X99798443Y-65948582D01*
X99912780Y-65724184D01*
X99990602Y-65484669D01*
X100030000Y-65235928D01*
X100030000Y-64984071D01*
X99990602Y-64735330D01*
X99912780Y-64495815D01*
X99798442Y-64271416D01*
X99739128Y-64189779D01*
X99739128Y-64189778D01*
X98920433Y-65008473D01*
X98895925Y-64917007D01*
X98830099Y-64802993D01*
X98737007Y-64709901D01*
X98622993Y-64644075D01*
X98531525Y-64619565D01*
X99350220Y-63800871D01*
X99350219Y-63800870D01*
X99268583Y-63741557D01*
X99044184Y-63627219D01*
X98804669Y-63549397D01*
X98555928Y-63510000D01*
X98304072Y-63510000D01*
X98055330Y-63549397D01*
X97815815Y-63627219D01*
X97591413Y-63741559D01*
X97509779Y-63800869D01*
X97509778Y-63800870D01*
X98328474Y-64619565D01*
X98237007Y-64644075D01*
X98122993Y-64709901D01*
X98029901Y-64802993D01*
X97964075Y-64917007D01*
X97939565Y-65008473D01*
X97120870Y-64189778D01*
X97120869Y-64189779D01*
X97061559Y-64271413D01*
X96947219Y-64495815D01*
X96869397Y-64735330D01*
X96830000Y-64984071D01*
X86320721Y-64984071D01*
X86315523Y-63624972D01*
X86334951Y-63557860D01*
X86387580Y-63511903D01*
X86439522Y-63500500D01*
X90065890Y-63500500D01*
X90065892Y-63500500D01*
X90193186Y-63466392D01*
X90307314Y-63400500D01*
X90400500Y-63307314D01*
X90466392Y-63193186D01*
X90500500Y-63065892D01*
X90500500Y-60624500D01*
X90520185Y-60557461D01*
X90572989Y-60511706D01*
X90624500Y-60500500D01*
X128375500Y-60500500D01*
X128442539Y-60520185D01*
G37*
%TD.AperFunction*%
%TD*%
M02*
