%TF.GenerationSoftware,KiCad,Pcbnew,9.0.7*%
%TF.CreationDate,2026-07-21T23:10:04-05:00*%
%TF.ProjectId,PCB60hz_15,50434236-3068-47a5-9f31-352e6b696361,rev?*%
%TF.SameCoordinates,Original*%
%TF.FileFunction,Copper,L2,Bot*%
%TF.FilePolarity,Positive*%
%FSLAX46Y46*%
G04 Gerber Fmt 4.6, Leading zero omitted, Abs format (unit mm)*
G04 Created by KiCad (PCBNEW 9.0.7) date 2026-07-21 23:10:04*
%MOMM*%
%LPD*%
G01*
G04 APERTURE LIST*
%TA.AperFunction,ComponentPad*%
%ADD10C,3.000000*%
%TD*%
%TA.AperFunction,ComponentPad*%
%ADD11C,4.500000*%
%TD*%
%TA.AperFunction,ComponentPad*%
%ADD12R,1.700000X1.700000*%
%TD*%
%TA.AperFunction,ComponentPad*%
%ADD13O,1.700000X1.700000*%
%TD*%
%TA.AperFunction,ComponentPad*%
%ADD14C,1.500000*%
%TD*%
%TA.AperFunction,ComponentPad*%
%ADD15R,2.000000X2.000000*%
%TD*%
%TA.AperFunction,ComponentPad*%
%ADD16C,2.000000*%
%TD*%
%TA.AperFunction,ComponentPad*%
%ADD17R,1.600000X1.600000*%
%TD*%
%TA.AperFunction,ComponentPad*%
%ADD18C,1.600000*%
%TD*%
%TA.AperFunction,ComponentPad*%
%ADD19R,1.980000X1.980000*%
%TD*%
%TA.AperFunction,ComponentPad*%
%ADD20C,1.980000*%
%TD*%
%TA.AperFunction,ComponentPad*%
%ADD21C,2.025000*%
%TD*%
%TA.AperFunction,ComponentPad*%
%ADD22R,2.025000X2.025000*%
%TD*%
%TA.AperFunction,Conductor*%
%ADD23C,0.800000*%
%TD*%
%TA.AperFunction,Conductor*%
%ADD24C,1.000000*%
%TD*%
%TA.AperFunction,Conductor*%
%ADD25C,0.600000*%
%TD*%
G04 APERTURE END LIST*
D10*
%TO.P,J1,1,1*%
%TO.N,Net-(T1-PRI_2)*%
X53690000Y-87730000D03*
%TO.P,J1,2,2*%
%TO.N,Net-(T1-PRI_1)*%
X53690000Y-79130000D03*
D11*
%TO.P,J1,MH1,MH1*%
%TO.N,unconnected-(J1-PadMH1)*%
X47190000Y-90930000D03*
%TO.P,J1,MH2,MH2*%
%TO.N,unconnected-(J1-PadMH2)*%
X47190000Y-77930000D03*
%TD*%
D12*
%TO.P,J4,1,Pin_1*%
%TO.N,Net-(J4-Pin_1)*%
X122480000Y-104570000D03*
D13*
%TO.P,J4,2,Pin_2*%
%TO.N,GNDREF*%
X125020000Y-104570000D03*
%TD*%
D14*
%TO.P,REF\u002A\u002A,1*%
%TO.N,Net-(D3-K)*%
X106130000Y-92550000D03*
%TD*%
D15*
%TO.P,C1,1*%
%TO.N,Net-(D3-K)*%
X98430000Y-70110000D03*
D16*
%TO.P,C1,2*%
%TO.N,GNDREF*%
X98430000Y-65110000D03*
%TD*%
D12*
%TO.P,J2,1,Pin_1*%
%TO.N,Net-(IC3-OUT)*%
X121700000Y-77210000D03*
D13*
%TO.P,J2,2,Pin_2*%
%TO.N,GNDREF*%
X124240000Y-77210000D03*
%TD*%
D14*
%TO.P,,1*%
%TO.N,GNDREF*%
X113680000Y-88840000D03*
%TD*%
D17*
%TO.P,C3,1*%
%TO.N,Net-(J4-Pin_1)*%
X121290000Y-98140000D03*
D18*
%TO.P,C3,2*%
%TO.N,GNDREF*%
X123790000Y-98140000D03*
%TD*%
D12*
%TO.P,J3,1,Pin_1*%
%TO.N,Net-(IC2-OUTPUT)*%
X121765000Y-69220000D03*
D13*
%TO.P,J3,2,Pin_2*%
%TO.N,GNDREF*%
X124305000Y-69220000D03*
%TD*%
D19*
%TO.P,IC3,1,GND*%
%TO.N,GNDREF*%
X108780000Y-80260000D03*
D20*
%TO.P,IC3,2,IN*%
%TO.N,Net-(D2-A)*%
X111330000Y-80260000D03*
%TO.P,IC3,3,OUT*%
%TO.N,Net-(IC3-OUT)*%
X113880000Y-80260000D03*
%TD*%
D21*
%TO.P,T1,6,SEC_2*%
%TO.N,GNDREF*%
X90180500Y-80945000D03*
D22*
%TO.P,T1,1,PRI_1*%
%TO.N,Net-(T1-PRI_1)*%
X59700500Y-74595000D03*
D21*
%TO.P,T1,4,PRI_2*%
%TO.N,Net-(T1-PRI_2)*%
X59700500Y-93645000D03*
%TO.P,T1,5,SEC_1*%
%TO.N,Net-(D1-A)*%
X90180500Y-74595000D03*
%TO.P,T1,7,SEC_3*%
%TO.N,GNDREF*%
X90180500Y-87295000D03*
%TO.P,T1,8,SEC_4*%
%TO.N,Net-(D2-K)*%
X90180500Y-93645000D03*
%TD*%
D19*
%TO.P,IC2,1,INPUT*%
%TO.N,Net-(D3-K)*%
X108780000Y-69070000D03*
D20*
%TO.P,IC2,2,GROUND*%
%TO.N,GNDREF*%
X111330000Y-69070000D03*
%TO.P,IC2,3,OUTPUT*%
%TO.N,Net-(IC2-OUTPUT)*%
X113880000Y-69070000D03*
%TD*%
D15*
%TO.P,C2,1*%
%TO.N,GNDREF*%
X98200000Y-97540000D03*
D16*
%TO.P,C2,2*%
%TO.N,Net-(D2-A)*%
X98200000Y-102540000D03*
%TD*%
D23*
%TO.N,Net-(D2-A)*%
X100201000Y-100539000D02*
X100201000Y-92821000D01*
X98200000Y-102540000D02*
X100201000Y-100539000D01*
X100201000Y-92821000D02*
X111330000Y-81692000D01*
X111330000Y-81692000D02*
X111330000Y-80260000D01*
D24*
%TO.N,Net-(T1-PRI_2)*%
X59700500Y-90130500D02*
X59700500Y-93645000D01*
X53690000Y-87730000D02*
X57300000Y-87730000D01*
X57300000Y-87730000D02*
X59700500Y-90130500D01*
%TO.N,Net-(T1-PRI_1)*%
X57340000Y-79130000D02*
X59700500Y-76769500D01*
X53690000Y-79130000D02*
X57340000Y-79130000D01*
X59700500Y-76769500D02*
X59700500Y-74595000D01*
D25*
%TO.N,Net-(D3-K)*%
X108780000Y-69070000D02*
X99470000Y-69070000D01*
X99470000Y-69070000D02*
X98430000Y-70110000D01*
X108780000Y-69070000D02*
X108780000Y-70660000D01*
X106130000Y-88731892D02*
X106130000Y-92550000D01*
X108780000Y-70660000D02*
X115771000Y-77651000D01*
X115771000Y-83259000D02*
X111602892Y-83259000D01*
X115771000Y-77651000D02*
X115771000Y-83259000D01*
X111602892Y-83259000D02*
X106130000Y-88731892D01*
%TD*%
%TA.AperFunction,Conductor*%
%TO.N,GNDREF*%
G36*
X128442539Y-60520185D02*
G01*
X128488294Y-60572989D01*
X128499500Y-60624500D01*
X128499500Y-107375500D01*
X128479815Y-107442539D01*
X128427011Y-107488294D01*
X128375500Y-107499500D01*
X90624500Y-107499500D01*
X90557461Y-107479815D01*
X90511706Y-107427011D01*
X90500500Y-107375500D01*
X90500500Y-104934110D01*
X90500500Y-104934108D01*
X90466392Y-104806814D01*
X90400500Y-104692686D01*
X90307314Y-104599500D01*
X90250250Y-104566554D01*
X90193187Y-104533608D01*
X90129539Y-104516554D01*
X90065892Y-104499500D01*
X87387114Y-104499500D01*
X87320075Y-104479815D01*
X87274320Y-104427011D01*
X87263115Y-104375974D01*
X87255611Y-102414038D01*
X96599500Y-102414038D01*
X96599500Y-102665961D01*
X96638910Y-102914785D01*
X96716760Y-103154383D01*
X96831132Y-103378848D01*
X96979201Y-103582649D01*
X96979205Y-103582654D01*
X97157345Y-103760794D01*
X97157350Y-103760798D01*
X97225117Y-103810033D01*
X97361155Y-103908870D01*
X97504184Y-103981747D01*
X97585616Y-104023239D01*
X97585618Y-104023239D01*
X97585621Y-104023241D01*
X97825215Y-104101090D01*
X98074038Y-104140500D01*
X98074039Y-104140500D01*
X98325961Y-104140500D01*
X98325962Y-104140500D01*
X98574785Y-104101090D01*
X98814379Y-104023241D01*
X99038845Y-103908870D01*
X99242656Y-103760793D01*
X99420793Y-103582656D01*
X99568870Y-103378845D01*
X99683241Y-103154379D01*
X99761090Y-102914785D01*
X99800500Y-102665962D01*
X99800500Y-102414038D01*
X99800500Y-102409166D01*
X99802028Y-102409166D01*
X99814979Y-102347415D01*
X99836567Y-102318351D01*
X100978139Y-101176782D01*
X100981916Y-101171130D01*
X101087632Y-101012914D01*
X101163051Y-100830835D01*
X101201500Y-100637541D01*
X101201500Y-93286782D01*
X101221185Y-93219743D01*
X101237819Y-93199101D01*
X105017819Y-89419101D01*
X105079142Y-89385616D01*
X105148834Y-89390600D01*
X105204767Y-89432472D01*
X105229184Y-89497936D01*
X105229500Y-89506782D01*
X105229500Y-90886000D01*
X105209815Y-90953039D01*
X105157011Y-90998794D01*
X105105500Y-91010000D01*
X105090000Y-91010000D01*
X104840400Y-91280399D01*
X104610000Y-91529999D01*
X104610000Y-94047219D01*
X104590315Y-94114258D01*
X104537511Y-94160013D01*
X104486349Y-94171219D01*
X104431319Y-94171374D01*
X103648289Y-94966929D01*
X103783982Y-105361216D01*
X103783983Y-105361217D01*
X104421027Y-105989895D01*
X117386027Y-105987767D01*
X118031101Y-105337541D01*
X118021224Y-104070000D01*
X118018190Y-103680645D01*
X121029500Y-103680645D01*
X121029500Y-105459363D01*
X121044953Y-105576753D01*
X121044956Y-105576762D01*
X121066401Y-105628536D01*
X121105464Y-105722841D01*
X121201718Y-105848282D01*
X121327159Y-105944536D01*
X121473238Y-106005044D01*
X121590639Y-106020500D01*
X123369360Y-106020499D01*
X123369363Y-106020499D01*
X123486753Y-106005046D01*
X123486757Y-106005044D01*
X123486762Y-106005044D01*
X123632841Y-105944536D01*
X123758282Y-105848282D01*
X123854536Y-105722841D01*
X123861924Y-105705005D01*
X123905764Y-105650601D01*
X123972058Y-105628536D01*
X124039758Y-105645815D01*
X124064166Y-105664776D01*
X124075385Y-105675995D01*
X124260033Y-105810150D01*
X124463395Y-105913769D01*
X124680454Y-105984295D01*
X124744999Y-105994518D01*
X124745000Y-105994518D01*
X124745000Y-104988578D01*
X124827007Y-105035925D01*
X124954174Y-105070000D01*
X125085826Y-105070000D01*
X125212993Y-105035925D01*
X125295000Y-104988578D01*
X125295000Y-105994518D01*
X125359543Y-105984295D01*
X125359546Y-105984295D01*
X125576604Y-105913769D01*
X125779966Y-105810150D01*
X125964614Y-105675995D01*
X126125995Y-105514614D01*
X126260150Y-105329966D01*
X126363769Y-105126604D01*
X126434295Y-104909547D01*
X126434295Y-104909546D01*
X126444519Y-104845000D01*
X125438578Y-104845000D01*
X125485925Y-104762993D01*
X125520000Y-104635826D01*
X125520000Y-104504174D01*
X125485925Y-104377007D01*
X125438578Y-104295000D01*
X126444519Y-104295000D01*
X126434295Y-104230453D01*
X126434295Y-104230452D01*
X126363769Y-104013395D01*
X126260150Y-103810033D01*
X126125995Y-103625385D01*
X125964614Y-103464004D01*
X125779966Y-103329849D01*
X125576604Y-103226230D01*
X125359546Y-103155704D01*
X125295000Y-103145481D01*
X125295000Y-104151421D01*
X125212993Y-104104075D01*
X125085826Y-104070000D01*
X124954174Y-104070000D01*
X124827007Y-104104075D01*
X124745000Y-104151421D01*
X124745000Y-103145481D01*
X124680453Y-103155704D01*
X124680452Y-103155704D01*
X124463395Y-103226230D01*
X124260030Y-103329851D01*
X124075394Y-103463996D01*
X124075388Y-103464001D01*
X124064163Y-103475226D01*
X124002839Y-103508709D01*
X123933147Y-103503722D01*
X123877215Y-103461849D01*
X123861924Y-103434995D01*
X123854536Y-103417160D01*
X123854536Y-103417159D01*
X123758282Y-103291718D01*
X123632841Y-103195464D01*
X123486762Y-103134956D01*
X123486760Y-103134955D01*
X123369370Y-103119501D01*
X123369367Y-103119500D01*
X123369361Y-103119500D01*
X123369354Y-103119500D01*
X121590636Y-103119500D01*
X121473246Y-103134953D01*
X121473237Y-103134956D01*
X121327160Y-103195463D01*
X121201718Y-103291718D01*
X121105463Y-103417160D01*
X121044956Y-103563237D01*
X121044955Y-103563239D01*
X121029501Y-103680629D01*
X121029500Y-103680645D01*
X118018190Y-103680645D01*
X118018166Y-103677546D01*
X117968475Y-97300645D01*
X119889500Y-97300645D01*
X119889500Y-98979363D01*
X119904953Y-99096753D01*
X119904956Y-99096762D01*
X119952371Y-99211233D01*
X119965464Y-99242841D01*
X120061718Y-99368282D01*
X120187159Y-99464536D01*
X120333238Y-99525044D01*
X120450639Y-99540500D01*
X122129360Y-99540499D01*
X122129363Y-99540499D01*
X122246753Y-99525046D01*
X122246757Y-99525044D01*
X122246762Y-99525044D01*
X122392841Y-99464536D01*
X122518282Y-99368282D01*
X122614536Y-99242841D01*
X122675044Y-99096762D01*
X122690500Y-98979361D01*
X122690499Y-98901950D01*
X122710183Y-98834914D01*
X122726818Y-98814271D01*
X123390000Y-98151090D01*
X123390000Y-98192661D01*
X123417259Y-98294394D01*
X123469920Y-98385606D01*
X123544394Y-98460080D01*
X123635606Y-98512741D01*
X123737339Y-98540000D01*
X123778908Y-98540000D01*
X123012963Y-99305944D01*
X123056243Y-99337388D01*
X123252589Y-99437432D01*
X123462164Y-99505526D01*
X123679819Y-99540000D01*
X123900181Y-99540000D01*
X124117835Y-99505526D01*
X124327410Y-99437432D01*
X124523760Y-99337386D01*
X124567035Y-99305944D01*
X124567036Y-99305943D01*
X123801093Y-98540000D01*
X123842661Y-98540000D01*
X123944394Y-98512741D01*
X124035606Y-98460080D01*
X124110080Y-98385606D01*
X124162741Y-98294394D01*
X124190000Y-98192661D01*
X124190000Y-98151092D01*
X124955943Y-98917036D01*
X124955944Y-98917035D01*
X124987386Y-98873760D01*
X125087432Y-98677410D01*
X125155526Y-98467835D01*
X125190000Y-98250181D01*
X125190000Y-98029818D01*
X125155526Y-97812164D01*
X125087432Y-97602589D01*
X124987388Y-97406243D01*
X124955944Y-97362963D01*
X124190000Y-98128907D01*
X124190000Y-98087339D01*
X124162741Y-97985606D01*
X124110080Y-97894394D01*
X124035606Y-97819920D01*
X123944394Y-97767259D01*
X123842661Y-97740000D01*
X123801092Y-97740000D01*
X124567035Y-96974054D01*
X124567035Y-96974053D01*
X124523761Y-96942614D01*
X124327410Y-96842567D01*
X124117835Y-96774473D01*
X123900181Y-96740000D01*
X123679819Y-96740000D01*
X123462164Y-96774473D01*
X123252589Y-96842567D01*
X123056237Y-96942614D01*
X123012963Y-96974053D01*
X123012963Y-96974054D01*
X123778909Y-97740000D01*
X123737339Y-97740000D01*
X123635606Y-97767259D01*
X123544394Y-97819920D01*
X123469920Y-97894394D01*
X123417259Y-97985606D01*
X123390000Y-98087339D01*
X123390000Y-98128908D01*
X122726818Y-97465726D01*
X122693333Y-97404403D01*
X122690499Y-97378045D01*
X122690499Y-97300636D01*
X122675046Y-97183246D01*
X122675044Y-97183239D01*
X122675044Y-97183238D01*
X122614536Y-97037159D01*
X122518282Y-96911718D01*
X122392841Y-96815464D01*
X122246762Y-96754956D01*
X122246760Y-96754955D01*
X122129370Y-96739501D01*
X122129367Y-96739500D01*
X122129361Y-96739500D01*
X122129354Y-96739500D01*
X120450636Y-96739500D01*
X120333246Y-96754953D01*
X120333237Y-96754956D01*
X120187160Y-96815463D01*
X120061718Y-96911718D01*
X119965463Y-97037160D01*
X119904956Y-97183237D01*
X119904955Y-97183239D01*
X119889907Y-97297546D01*
X119889501Y-97300636D01*
X119889500Y-97300645D01*
X117968475Y-97300645D01*
X117968451Y-97297546D01*
X117950126Y-94945988D01*
X117950126Y-94945986D01*
X117131123Y-94135624D01*
X109142861Y-94158110D01*
X109075766Y-94138614D01*
X109029863Y-94085939D01*
X109018516Y-94035055D01*
X109000000Y-91600000D01*
X108999999Y-91599999D01*
X108000002Y-91010000D01*
X108000000Y-91010000D01*
X107154500Y-91010000D01*
X107087461Y-90990315D01*
X107041706Y-90937511D01*
X107030500Y-90886000D01*
X107030500Y-89970147D01*
X112938758Y-89970147D01*
X112938759Y-89970148D01*
X112972442Y-89994620D01*
X113161782Y-90091095D01*
X113363870Y-90156757D01*
X113573754Y-90190000D01*
X113786246Y-90190000D01*
X113996127Y-90156757D01*
X113996130Y-90156757D01*
X114198217Y-90091095D01*
X114387554Y-89994622D01*
X114421239Y-89970148D01*
X114421239Y-89970147D01*
X113680000Y-89228908D01*
X112938758Y-89970147D01*
X107030500Y-89970147D01*
X107030500Y-89156254D01*
X107050185Y-89089215D01*
X107066819Y-89068573D01*
X107401639Y-88733753D01*
X112330000Y-88733753D01*
X112330000Y-88946246D01*
X112363242Y-89156127D01*
X112363242Y-89156130D01*
X112428904Y-89358217D01*
X112525375Y-89547550D01*
X112549851Y-89581239D01*
X113291092Y-88840000D01*
X113248305Y-88797213D01*
X113355000Y-88797213D01*
X113355000Y-88882787D01*
X113377149Y-88965445D01*
X113419936Y-89039554D01*
X113480446Y-89100064D01*
X113554555Y-89142851D01*
X113637213Y-89165000D01*
X113722787Y-89165000D01*
X113805445Y-89142851D01*
X113879554Y-89100064D01*
X113940064Y-89039554D01*
X113982851Y-88965445D01*
X114005000Y-88882787D01*
X114005000Y-88839999D01*
X114068908Y-88839999D01*
X114068908Y-88840000D01*
X114810147Y-89581239D01*
X114810148Y-89581239D01*
X114834622Y-89547554D01*
X114931095Y-89358217D01*
X114996757Y-89156130D01*
X114996757Y-89156127D01*
X115030000Y-88946246D01*
X115030000Y-88733753D01*
X114996757Y-88523872D01*
X114996757Y-88523869D01*
X114931095Y-88321782D01*
X114834620Y-88132442D01*
X114810148Y-88098759D01*
X114810147Y-88098758D01*
X114068908Y-88839999D01*
X114005000Y-88839999D01*
X114005000Y-88797213D01*
X113982851Y-88714555D01*
X113940064Y-88640446D01*
X113879554Y-88579936D01*
X113805445Y-88537149D01*
X113722787Y-88515000D01*
X113637213Y-88515000D01*
X113554555Y-88537149D01*
X113480446Y-88579936D01*
X113419936Y-88640446D01*
X113377149Y-88714555D01*
X113355000Y-88797213D01*
X113248305Y-88797213D01*
X112549851Y-88098759D01*
X112549850Y-88098759D01*
X112525379Y-88132442D01*
X112428904Y-88321782D01*
X112363242Y-88523869D01*
X112363242Y-88523872D01*
X112330000Y-88733753D01*
X107401639Y-88733753D01*
X108425542Y-87709850D01*
X112938759Y-87709850D01*
X112938759Y-87709851D01*
X113680000Y-88451092D01*
X113680001Y-88451092D01*
X114421239Y-87709851D01*
X114387550Y-87685375D01*
X114198217Y-87588904D01*
X113996129Y-87523242D01*
X113786246Y-87490000D01*
X113573754Y-87490000D01*
X113363872Y-87523242D01*
X113363869Y-87523242D01*
X113161782Y-87588904D01*
X112972442Y-87685379D01*
X112938759Y-87709850D01*
X108425542Y-87709850D01*
X111939573Y-84195819D01*
X112000896Y-84162334D01*
X112027254Y-84159500D01*
X115859693Y-84159500D01*
X115859694Y-84159499D01*
X115917682Y-84147964D01*
X116033658Y-84124896D01*
X116033661Y-84124894D01*
X116033666Y-84124894D01*
X116197547Y-84057013D01*
X116345035Y-83958464D01*
X116470464Y-83833035D01*
X116569013Y-83685547D01*
X116636894Y-83521666D01*
X116671500Y-83347691D01*
X116671500Y-77562309D01*
X116671500Y-77562308D01*
X116636895Y-77388334D01*
X116598901Y-77296611D01*
X116569013Y-77224453D01*
X116501484Y-77123389D01*
X116470464Y-77076964D01*
X116470462Y-77076962D01*
X116470460Y-77076959D01*
X115797762Y-76404261D01*
X115714146Y-76320645D01*
X120249500Y-76320645D01*
X120249500Y-78099363D01*
X120264953Y-78216753D01*
X120264956Y-78216762D01*
X120286401Y-78268536D01*
X120325464Y-78362841D01*
X120421718Y-78488282D01*
X120547159Y-78584536D01*
X120693238Y-78645044D01*
X120810639Y-78660500D01*
X122589360Y-78660499D01*
X122589363Y-78660499D01*
X122706753Y-78645046D01*
X122706757Y-78645044D01*
X122706762Y-78645044D01*
X122852841Y-78584536D01*
X122978282Y-78488282D01*
X123074536Y-78362841D01*
X123081924Y-78345005D01*
X123125764Y-78290601D01*
X123192058Y-78268536D01*
X123259758Y-78285815D01*
X123284166Y-78304776D01*
X123295385Y-78315995D01*
X123480033Y-78450150D01*
X123683395Y-78553769D01*
X123900454Y-78624295D01*
X123964999Y-78634518D01*
X123965000Y-78634518D01*
X123965000Y-77628578D01*
X124047007Y-77675925D01*
X124174174Y-77710000D01*
X124305826Y-77710000D01*
X124432993Y-77675925D01*
X124515000Y-77628578D01*
X124515000Y-78634518D01*
X124579543Y-78624295D01*
X124579546Y-78624295D01*
X124796604Y-78553769D01*
X124999966Y-78450150D01*
X125184614Y-78315995D01*
X125345995Y-78154614D01*
X125480150Y-77969966D01*
X125583769Y-77766604D01*
X125654295Y-77549547D01*
X125654295Y-77549546D01*
X125664519Y-77485000D01*
X124658578Y-77485000D01*
X124705925Y-77402993D01*
X124740000Y-77275826D01*
X124740000Y-77144174D01*
X124705925Y-77017007D01*
X124658578Y-76935000D01*
X125664519Y-76935000D01*
X125654295Y-76870453D01*
X125654295Y-76870452D01*
X125583769Y-76653395D01*
X125480150Y-76450033D01*
X125345995Y-76265385D01*
X125184614Y-76104004D01*
X124999966Y-75969849D01*
X124796604Y-75866230D01*
X124579546Y-75795704D01*
X124515000Y-75785481D01*
X124515000Y-76791421D01*
X124432993Y-76744075D01*
X124305826Y-76710000D01*
X124174174Y-76710000D01*
X124047007Y-76744075D01*
X123965000Y-76791421D01*
X123965000Y-75785481D01*
X123900453Y-75795704D01*
X123900452Y-75795704D01*
X123683395Y-75866230D01*
X123480030Y-75969851D01*
X123295394Y-76103996D01*
X123295388Y-76104001D01*
X123284163Y-76115226D01*
X123222839Y-76148709D01*
X123153147Y-76143722D01*
X123097215Y-76101849D01*
X123081924Y-76074995D01*
X123074536Y-76057160D01*
X123074536Y-76057159D01*
X122978282Y-75931718D01*
X122852841Y-75835464D01*
X122828363Y-75825325D01*
X122706762Y-75774956D01*
X122706760Y-75774955D01*
X122589370Y-75759501D01*
X122589367Y-75759500D01*
X122589361Y-75759500D01*
X122589354Y-75759500D01*
X120810636Y-75759500D01*
X120693246Y-75774953D01*
X120693237Y-75774956D01*
X120547160Y-75835463D01*
X120421718Y-75931718D01*
X120325463Y-76057160D01*
X120264956Y-76203237D01*
X120264955Y-76203239D01*
X120249501Y-76320629D01*
X120249500Y-76320645D01*
X115714146Y-76320645D01*
X109947611Y-70554111D01*
X109944659Y-70548705D01*
X109939563Y-70545246D01*
X109928112Y-70518401D01*
X109914126Y-70492788D01*
X109914565Y-70486643D01*
X109912149Y-70480979D01*
X109917028Y-70452208D01*
X109919110Y-70423096D01*
X109923063Y-70416620D01*
X109923831Y-70412093D01*
X109936876Y-70393995D01*
X109943655Y-70382892D01*
X109945997Y-70380322D01*
X110049064Y-70279318D01*
X110047889Y-70015110D01*
X110067274Y-69947990D01*
X110084206Y-69926883D01*
X110710949Y-69300141D01*
X110745116Y-69382627D01*
X110817345Y-69490725D01*
X110909275Y-69582655D01*
X111017373Y-69654884D01*
X111099857Y-69689050D01*
X110416937Y-70371969D01*
X110496657Y-70429889D01*
X110719647Y-70543509D01*
X110957673Y-70620849D01*
X111204859Y-70660000D01*
X111455141Y-70660000D01*
X111702326Y-70620849D01*
X111940352Y-70543509D01*
X112163334Y-70429893D01*
X112163340Y-70429889D01*
X112243060Y-70371969D01*
X112243061Y-70371968D01*
X111560142Y-69689049D01*
X111642627Y-69654884D01*
X111750725Y-69582655D01*
X111842655Y-69490725D01*
X111914884Y-69382627D01*
X111949050Y-69300142D01*
X112653681Y-70004773D01*
X112687166Y-70066096D01*
X112690000Y-70092454D01*
X112690000Y-70342554D01*
X113011114Y-70670500D01*
X113040000Y-70700000D01*
X115020001Y-70700000D01*
X115519999Y-70210001D01*
X115520000Y-70210001D01*
X115520000Y-68330645D01*
X120314500Y-68330645D01*
X120314500Y-70109363D01*
X120329953Y-70226753D01*
X120329956Y-70226762D01*
X120351401Y-70278536D01*
X120390464Y-70372841D01*
X120486718Y-70498282D01*
X120612159Y-70594536D01*
X120758238Y-70655044D01*
X120875639Y-70670500D01*
X122654360Y-70670499D01*
X122654363Y-70670499D01*
X122771753Y-70655046D01*
X122771757Y-70655044D01*
X122771762Y-70655044D01*
X122917841Y-70594536D01*
X123043282Y-70498282D01*
X123139536Y-70372841D01*
X123146924Y-70355005D01*
X123190764Y-70300601D01*
X123257058Y-70278536D01*
X123324758Y-70295815D01*
X123349166Y-70314776D01*
X123360385Y-70325995D01*
X123545033Y-70460150D01*
X123748395Y-70563769D01*
X123965454Y-70634295D01*
X124029999Y-70644518D01*
X124030000Y-70644518D01*
X124030000Y-69638578D01*
X124112007Y-69685925D01*
X124239174Y-69720000D01*
X124370826Y-69720000D01*
X124497993Y-69685925D01*
X124580000Y-69638578D01*
X124580000Y-70644518D01*
X124644543Y-70634295D01*
X124644546Y-70634295D01*
X124861604Y-70563769D01*
X125064966Y-70460150D01*
X125249614Y-70325995D01*
X125410995Y-70164614D01*
X125545150Y-69979966D01*
X125648769Y-69776604D01*
X125719295Y-69559547D01*
X125719295Y-69559546D01*
X125729519Y-69495000D01*
X124723578Y-69495000D01*
X124770925Y-69412993D01*
X124805000Y-69285826D01*
X124805000Y-69154174D01*
X124770925Y-69027007D01*
X124723578Y-68945000D01*
X125729519Y-68945000D01*
X125719295Y-68880453D01*
X125719295Y-68880452D01*
X125648769Y-68663395D01*
X125545150Y-68460033D01*
X125410995Y-68275385D01*
X125249614Y-68114004D01*
X125064966Y-67979849D01*
X124861604Y-67876230D01*
X124644546Y-67805704D01*
X124580000Y-67795481D01*
X124580000Y-68801421D01*
X124497993Y-68754075D01*
X124370826Y-68720000D01*
X124239174Y-68720000D01*
X124112007Y-68754075D01*
X124030000Y-68801421D01*
X124030000Y-67795481D01*
X123965453Y-67805704D01*
X123965452Y-67805704D01*
X123748395Y-67876230D01*
X123545030Y-67979851D01*
X123360394Y-68113996D01*
X123360388Y-68114001D01*
X123349163Y-68125226D01*
X123287839Y-68158709D01*
X123218147Y-68153722D01*
X123162215Y-68111849D01*
X123146924Y-68084995D01*
X123139536Y-68067160D01*
X123139536Y-68067159D01*
X123043282Y-67941718D01*
X122917841Y-67845464D01*
X122771762Y-67784956D01*
X122771760Y-67784955D01*
X122654370Y-67769501D01*
X122654367Y-67769500D01*
X122654361Y-67769500D01*
X122654354Y-67769500D01*
X120875636Y-67769500D01*
X120758246Y-67784953D01*
X120758237Y-67784956D01*
X120612160Y-67845463D01*
X120486718Y-67941718D01*
X120390463Y-68067160D01*
X120329956Y-68213237D01*
X120329955Y-68213239D01*
X120314501Y-68330629D01*
X120314500Y-68330645D01*
X115520000Y-68330645D01*
X115520000Y-67960000D01*
X115020000Y-67460000D01*
X113050000Y-67460000D01*
X112862800Y-67662799D01*
X112690000Y-67849999D01*
X112690000Y-68047545D01*
X112670315Y-68114584D01*
X112653681Y-68135226D01*
X111949049Y-68839857D01*
X111914884Y-68757373D01*
X111842655Y-68649275D01*
X111750725Y-68557345D01*
X111642627Y-68485116D01*
X111560141Y-68450949D01*
X112243061Y-67768029D01*
X112243060Y-67768028D01*
X112163345Y-67710112D01*
X111940352Y-67596490D01*
X111702326Y-67519150D01*
X111455141Y-67480000D01*
X111204859Y-67480000D01*
X110957673Y-67519150D01*
X110719647Y-67596490D01*
X110496661Y-67710108D01*
X110416938Y-67768029D01*
X111099858Y-68450949D01*
X111017373Y-68485116D01*
X110909275Y-68557345D01*
X110817345Y-68649275D01*
X110745116Y-68757373D01*
X110710949Y-68839858D01*
X110075773Y-68204682D01*
X110042288Y-68143359D01*
X110039455Y-68117556D01*
X110038355Y-67869956D01*
X109934389Y-67768029D01*
X109610000Y-67450000D01*
X107640000Y-67450000D01*
X107639999Y-67450000D01*
X107140000Y-67949999D01*
X107140000Y-68045500D01*
X107120315Y-68112539D01*
X107067511Y-68158294D01*
X107016000Y-68169500D01*
X99381303Y-68169500D01*
X99207341Y-68204103D01*
X99207329Y-68204106D01*
X99125392Y-68238045D01*
X99125393Y-68238046D01*
X99043455Y-68271985D01*
X98955676Y-68330638D01*
X98895965Y-68370535D01*
X98895960Y-68370539D01*
X98793316Y-68473182D01*
X98731993Y-68506666D01*
X98705636Y-68509500D01*
X97390636Y-68509500D01*
X97273246Y-68524953D01*
X97273237Y-68524956D01*
X97127160Y-68585463D01*
X97001718Y-68681718D01*
X96905463Y-68807160D01*
X96844956Y-68953237D01*
X96844955Y-68953239D01*
X96829501Y-69070629D01*
X96829500Y-69070645D01*
X96829500Y-71149363D01*
X96844953Y-71266753D01*
X96844956Y-71266762D01*
X96905464Y-71412841D01*
X97001718Y-71538282D01*
X97127159Y-71634536D01*
X97273238Y-71695044D01*
X97390639Y-71710500D01*
X99469360Y-71710499D01*
X99469363Y-71710499D01*
X99586753Y-71695046D01*
X99586757Y-71695044D01*
X99586762Y-71695044D01*
X99732841Y-71634536D01*
X99858282Y-71538282D01*
X99954536Y-71412841D01*
X100015044Y-71266762D01*
X100030500Y-71149361D01*
X100030499Y-70094499D01*
X100050183Y-70027461D01*
X100102987Y-69981706D01*
X100154499Y-69970500D01*
X107016000Y-69970500D01*
X107083039Y-69990185D01*
X107128794Y-70042989D01*
X107140000Y-70094500D01*
X107140000Y-70190000D01*
X107640000Y-70690000D01*
X107766061Y-70690000D01*
X107794084Y-70698228D01*
X107822767Y-70703726D01*
X107827212Y-70707956D01*
X107833100Y-70709685D01*
X107852222Y-70731753D01*
X107873384Y-70751889D01*
X107876243Y-70759475D01*
X107878855Y-70762489D01*
X107886535Y-70784641D01*
X107887163Y-70787221D01*
X107914105Y-70922666D01*
X107925185Y-70949414D01*
X107928838Y-70958235D01*
X107928839Y-70958236D01*
X107981984Y-71086542D01*
X107981985Y-71086544D01*
X108041063Y-71174960D01*
X108041064Y-71174961D01*
X108080534Y-71234034D01*
X114834181Y-77987681D01*
X114867666Y-78049004D01*
X114870500Y-78075362D01*
X114870500Y-78706000D01*
X114867949Y-78714685D01*
X114869238Y-78723647D01*
X114858259Y-78747687D01*
X114850815Y-78773039D01*
X114843974Y-78778966D01*
X114840213Y-78787203D01*
X114817978Y-78801492D01*
X114798011Y-78818794D01*
X114787496Y-78821081D01*
X114781435Y-78824977D01*
X114746500Y-78830000D01*
X114606614Y-78830000D01*
X114550319Y-78816485D01*
X114490540Y-78786025D01*
X114490537Y-78786024D01*
X114252445Y-78708664D01*
X114087597Y-78682554D01*
X114005175Y-78669500D01*
X113754825Y-78669500D01*
X113672402Y-78682554D01*
X113507555Y-78708664D01*
X113507552Y-78708664D01*
X113269462Y-78786024D01*
X113269459Y-78786025D01*
X113209681Y-78816485D01*
X113153386Y-78830000D01*
X112056614Y-78830000D01*
X112000319Y-78816485D01*
X111940540Y-78786025D01*
X111940537Y-78786024D01*
X111702445Y-78708664D01*
X111537597Y-78682554D01*
X111455175Y-78669500D01*
X111204825Y-78669500D01*
X111122402Y-78682554D01*
X110957555Y-78708664D01*
X110957552Y-78708664D01*
X110719462Y-78786024D01*
X110719459Y-78786025D01*
X110659681Y-78816485D01*
X110603386Y-78830000D01*
X110450000Y-78830000D01*
X110423475Y-78858734D01*
X110407152Y-78876418D01*
X110347215Y-78912326D01*
X110277380Y-78910130D01*
X110219818Y-78870527D01*
X110217661Y-78867796D01*
X110197926Y-78842076D01*
X110072586Y-78745899D01*
X109926634Y-78685445D01*
X109926630Y-78685444D01*
X109809330Y-78670000D01*
X109055000Y-78670000D01*
X109055000Y-79659530D01*
X108972515Y-79625364D01*
X108845004Y-79600000D01*
X108714996Y-79600000D01*
X108587485Y-79625364D01*
X108505000Y-79659530D01*
X108505000Y-78670000D01*
X107750675Y-78670000D01*
X107633371Y-78685442D01*
X107633366Y-78685444D01*
X107487414Y-78745899D01*
X107362075Y-78842075D01*
X107265899Y-78967413D01*
X107205445Y-79113365D01*
X107205444Y-79113369D01*
X107190000Y-79230669D01*
X107190000Y-79985000D01*
X108179530Y-79985000D01*
X108145364Y-80067485D01*
X108120000Y-80194996D01*
X108120000Y-80325004D01*
X108145364Y-80452515D01*
X108179530Y-80535000D01*
X107190001Y-80535000D01*
X107190001Y-81289324D01*
X107205442Y-81406628D01*
X107205444Y-81406633D01*
X107265899Y-81552585D01*
X107362075Y-81677924D01*
X107487413Y-81774100D01*
X107633365Y-81834554D01*
X107633369Y-81834555D01*
X107750676Y-81849999D01*
X108504999Y-81849999D01*
X108505000Y-81849998D01*
X108505000Y-80860469D01*
X108587485Y-80894636D01*
X108714996Y-80920000D01*
X108845004Y-80920000D01*
X108972515Y-80894636D01*
X109055000Y-80860469D01*
X109055000Y-81849999D01*
X109457716Y-81849999D01*
X109524755Y-81869684D01*
X109570510Y-81922488D01*
X109580454Y-81991646D01*
X109551429Y-82055202D01*
X109545397Y-82061680D01*
X102025840Y-89581239D01*
X99563220Y-92043859D01*
X99563218Y-92043861D01*
X99493538Y-92113540D01*
X99423859Y-92183219D01*
X99314371Y-92347079D01*
X99314364Y-92347092D01*
X99238950Y-92529160D01*
X99238947Y-92529170D01*
X99200500Y-92722456D01*
X99200500Y-95816000D01*
X99180815Y-95883039D01*
X99128011Y-95928794D01*
X99076500Y-95940000D01*
X98475000Y-95940000D01*
X98475000Y-97121421D01*
X98392993Y-97074075D01*
X98265826Y-97040000D01*
X98134174Y-97040000D01*
X98007007Y-97074075D01*
X97925000Y-97121421D01*
X97925000Y-95940000D01*
X97160675Y-95940000D01*
X97043371Y-95955442D01*
X97043366Y-95955444D01*
X96897414Y-96015899D01*
X96772075Y-96112075D01*
X96675899Y-96237413D01*
X96615445Y-96383365D01*
X96615444Y-96383369D01*
X96600000Y-96500669D01*
X96600000Y-97265000D01*
X97781422Y-97265000D01*
X97734075Y-97347007D01*
X97700000Y-97474174D01*
X97700000Y-97605826D01*
X97734075Y-97732993D01*
X97781422Y-97815000D01*
X96600001Y-97815000D01*
X96600001Y-98579324D01*
X96615442Y-98696628D01*
X96615444Y-98696633D01*
X96675899Y-98842585D01*
X96772075Y-98967924D01*
X96897413Y-99064100D01*
X97043365Y-99124554D01*
X97043369Y-99124555D01*
X97160676Y-99139999D01*
X97924999Y-99139999D01*
X97925000Y-99139998D01*
X97925000Y-97958578D01*
X98007007Y-98005925D01*
X98134174Y-98040000D01*
X98265826Y-98040000D01*
X98392993Y-98005925D01*
X98475000Y-97958578D01*
X98475000Y-99139999D01*
X99076500Y-99139999D01*
X99143539Y-99159684D01*
X99189294Y-99212488D01*
X99200500Y-99263999D01*
X99200500Y-100073217D01*
X99180815Y-100140256D01*
X99164181Y-100160898D01*
X98421651Y-100903427D01*
X98360328Y-100936912D01*
X98330834Y-100938919D01*
X98330834Y-100939500D01*
X98325962Y-100939500D01*
X98074038Y-100939500D01*
X97949626Y-100959205D01*
X97825214Y-100978910D01*
X97585616Y-101056760D01*
X97361151Y-101171132D01*
X97157350Y-101319201D01*
X97157345Y-101319205D01*
X96979205Y-101497345D01*
X96979201Y-101497350D01*
X96831132Y-101701151D01*
X96716760Y-101925616D01*
X96638910Y-102165214D01*
X96599500Y-102414038D01*
X87255611Y-102414038D01*
X87255594Y-102409640D01*
X87237827Y-97764112D01*
X87232981Y-96497092D01*
X87221587Y-93518048D01*
X88567500Y-93518048D01*
X88567500Y-93771951D01*
X88607216Y-94022712D01*
X88685675Y-94264181D01*
X88800938Y-94490396D01*
X88950172Y-94695799D01*
X89129701Y-94875328D01*
X89335104Y-95024562D01*
X89441984Y-95079020D01*
X89561318Y-95139824D01*
X89561320Y-95139824D01*
X89561323Y-95139826D01*
X89690754Y-95181880D01*
X89802787Y-95218283D01*
X90053549Y-95258000D01*
X90053554Y-95258000D01*
X90307451Y-95258000D01*
X90558212Y-95218283D01*
X90799677Y-95139826D01*
X91025896Y-95024562D01*
X91231299Y-94875328D01*
X91410828Y-94695799D01*
X91560062Y-94490396D01*
X91675326Y-94264177D01*
X91753783Y-94022712D01*
X91793500Y-93771951D01*
X91793500Y-93518048D01*
X91753783Y-93267287D01*
X91675324Y-93025818D01*
X91560061Y-92799603D01*
X91410828Y-92594201D01*
X91231299Y-92414672D01*
X91025896Y-92265438D01*
X90799681Y-92150175D01*
X90558212Y-92071716D01*
X90307451Y-92032000D01*
X90307446Y-92032000D01*
X90053554Y-92032000D01*
X90053549Y-92032000D01*
X89802787Y-92071716D01*
X89561318Y-92150175D01*
X89335103Y-92265438D01*
X89129698Y-92414674D01*
X88950174Y-92594198D01*
X88800938Y-92799603D01*
X88685675Y-93025818D01*
X88607216Y-93267287D01*
X88567500Y-93518048D01*
X87221587Y-93518048D01*
X87221570Y-93513656D01*
X87202648Y-88566292D01*
X87197301Y-87168088D01*
X88568000Y-87168088D01*
X88568000Y-87421911D01*
X88607704Y-87672591D01*
X88686139Y-87913987D01*
X88801368Y-88140137D01*
X88862419Y-88224168D01*
X88862421Y-88224169D01*
X89549968Y-87536622D01*
X89582323Y-87614732D01*
X89656193Y-87725287D01*
X89750213Y-87819307D01*
X89860768Y-87893177D01*
X89938876Y-87925530D01*
X89251329Y-88613077D01*
X89335365Y-88674133D01*
X89561512Y-88789360D01*
X89802908Y-88867795D01*
X90053589Y-88907500D01*
X90307411Y-88907500D01*
X90558091Y-88867795D01*
X90799487Y-88789360D01*
X91025626Y-88674137D01*
X91025632Y-88674133D01*
X91109668Y-88613077D01*
X91109669Y-88613076D01*
X90422123Y-87925530D01*
X90500232Y-87893177D01*
X90610787Y-87819307D01*
X90704807Y-87725287D01*
X90778677Y-87614732D01*
X90811030Y-87536623D01*
X91498576Y-88224169D01*
X91498577Y-88224168D01*
X91559633Y-88140132D01*
X91559637Y-88140126D01*
X91674860Y-87913987D01*
X91753295Y-87672591D01*
X91793000Y-87421911D01*
X91793000Y-87168088D01*
X91753295Y-86917408D01*
X91674860Y-86676012D01*
X91559633Y-86449865D01*
X91498577Y-86365830D01*
X91498577Y-86365829D01*
X90811030Y-87053376D01*
X90778677Y-86975268D01*
X90704807Y-86864713D01*
X90610787Y-86770693D01*
X90500232Y-86696823D01*
X90422122Y-86664468D01*
X91109669Y-85976921D01*
X91109668Y-85976919D01*
X91025637Y-85915868D01*
X90799487Y-85800639D01*
X90558091Y-85722204D01*
X90307411Y-85682500D01*
X90053589Y-85682500D01*
X89802908Y-85722204D01*
X89561512Y-85800639D01*
X89335367Y-85915865D01*
X89251330Y-85976921D01*
X89938877Y-86664468D01*
X89860768Y-86696823D01*
X89750213Y-86770693D01*
X89656193Y-86864713D01*
X89582323Y-86975268D01*
X89549968Y-87053377D01*
X88862421Y-86365830D01*
X88801365Y-86449867D01*
X88686139Y-86676012D01*
X88607704Y-86917408D01*
X88568000Y-87168088D01*
X87197301Y-87168088D01*
X87197284Y-87163696D01*
X87192928Y-86024654D01*
X87178362Y-82216292D01*
X87173014Y-80818088D01*
X88568000Y-80818088D01*
X88568000Y-81071911D01*
X88607704Y-81322591D01*
X88686139Y-81563987D01*
X88801368Y-81790137D01*
X88862419Y-81874168D01*
X88862421Y-81874169D01*
X89549968Y-81186622D01*
X89582323Y-81264732D01*
X89656193Y-81375287D01*
X89750213Y-81469307D01*
X89860768Y-81543177D01*
X89938876Y-81575530D01*
X89251329Y-82263077D01*
X89335365Y-82324133D01*
X89561512Y-82439360D01*
X89802908Y-82517795D01*
X90053589Y-82557500D01*
X90307411Y-82557500D01*
X90558091Y-82517795D01*
X90799487Y-82439360D01*
X91025626Y-82324137D01*
X91025632Y-82324133D01*
X91109668Y-82263077D01*
X91109669Y-82263076D01*
X90422123Y-81575530D01*
X90500232Y-81543177D01*
X90610787Y-81469307D01*
X90704807Y-81375287D01*
X90778677Y-81264732D01*
X90811030Y-81186623D01*
X91498576Y-81874169D01*
X91498577Y-81874168D01*
X91559633Y-81790132D01*
X91559637Y-81790126D01*
X91674860Y-81563987D01*
X91753295Y-81322591D01*
X91793000Y-81071911D01*
X91793000Y-80818088D01*
X91753295Y-80567410D01*
X91738527Y-80521957D01*
X91738526Y-80521955D01*
X91674860Y-80326012D01*
X91559633Y-80099865D01*
X91498577Y-80015830D01*
X91498577Y-80015829D01*
X90811030Y-80703376D01*
X90778677Y-80625268D01*
X90704807Y-80514713D01*
X90610787Y-80420693D01*
X90500232Y-80346823D01*
X90422122Y-80314468D01*
X91109669Y-79626921D01*
X91109668Y-79626919D01*
X91025637Y-79565868D01*
X90799487Y-79450639D01*
X90558091Y-79372204D01*
X90412162Y-79349091D01*
X90307411Y-79332500D01*
X90053589Y-79332500D01*
X89802908Y-79372204D01*
X89561512Y-79450639D01*
X89335367Y-79565865D01*
X89251330Y-79626921D01*
X89938877Y-80314468D01*
X89860768Y-80346823D01*
X89750213Y-80420693D01*
X89656193Y-80514713D01*
X89582323Y-80625268D01*
X89549968Y-80703377D01*
X88862421Y-80015830D01*
X88801365Y-80099867D01*
X88686139Y-80326012D01*
X88607704Y-80567408D01*
X88568000Y-80818088D01*
X87173014Y-80818088D01*
X87172997Y-80813696D01*
X87168641Y-79674654D01*
X87148727Y-74468048D01*
X88567500Y-74468048D01*
X88567500Y-74721951D01*
X88607216Y-74972712D01*
X88685675Y-75214181D01*
X88800938Y-75440396D01*
X88950172Y-75645799D01*
X89129701Y-75825328D01*
X89335104Y-75974562D01*
X89441984Y-76029020D01*
X89561318Y-76089824D01*
X89561320Y-76089824D01*
X89561323Y-76089826D01*
X89639496Y-76115226D01*
X89802787Y-76168283D01*
X90053549Y-76208000D01*
X90053554Y-76208000D01*
X90307451Y-76208000D01*
X90558212Y-76168283D01*
X90618454Y-76148709D01*
X90799677Y-76089826D01*
X91025896Y-75974562D01*
X91231299Y-75825328D01*
X91410828Y-75645799D01*
X91560062Y-75440396D01*
X91675326Y-75214177D01*
X91753783Y-74972712D01*
X91793500Y-74721951D01*
X91793500Y-74468048D01*
X91753783Y-74217287D01*
X91675324Y-73975818D01*
X91560061Y-73749603D01*
X91410828Y-73544201D01*
X91231299Y-73364672D01*
X91025896Y-73215438D01*
X90799681Y-73100175D01*
X90558212Y-73021716D01*
X90307451Y-72982000D01*
X90307446Y-72982000D01*
X90053554Y-72982000D01*
X90053549Y-72982000D01*
X89802787Y-73021716D01*
X89561318Y-73100175D01*
X89335103Y-73215438D01*
X89129698Y-73364674D01*
X88950174Y-73544198D01*
X88800938Y-73749603D01*
X88685675Y-73975818D01*
X88607216Y-74217287D01*
X88567500Y-74468048D01*
X87148727Y-74468048D01*
X87148710Y-74463656D01*
X87122149Y-67519150D01*
X87112453Y-64984071D01*
X96830000Y-64984071D01*
X96830000Y-65235928D01*
X96869397Y-65484669D01*
X96947219Y-65724184D01*
X97061557Y-65948583D01*
X97120870Y-66030219D01*
X97120871Y-66030220D01*
X97939565Y-65211525D01*
X97964075Y-65302993D01*
X98029901Y-65417007D01*
X98122993Y-65510099D01*
X98237007Y-65575925D01*
X98328473Y-65600433D01*
X97509778Y-66419128D01*
X97591416Y-66478442D01*
X97815815Y-66592780D01*
X98055330Y-66670602D01*
X98304072Y-66710000D01*
X98555928Y-66710000D01*
X98804669Y-66670602D01*
X99044184Y-66592780D01*
X99268582Y-66478443D01*
X99350219Y-66419128D01*
X99350220Y-66419127D01*
X98531526Y-65600433D01*
X98622993Y-65575925D01*
X98737007Y-65510099D01*
X98830099Y-65417007D01*
X98895925Y-65302993D01*
X98920433Y-65211526D01*
X99739127Y-66030220D01*
X99739128Y-66030219D01*
X99798443Y-65948582D01*
X99912780Y-65724184D01*
X99990602Y-65484669D01*
X100030000Y-65235928D01*
X100030000Y-64984071D01*
X99990602Y-64735330D01*
X99912780Y-64495815D01*
X99798442Y-64271416D01*
X99739128Y-64189779D01*
X99739128Y-64189778D01*
X98920433Y-65008473D01*
X98895925Y-64917007D01*
X98830099Y-64802993D01*
X98737007Y-64709901D01*
X98622993Y-64644075D01*
X98531525Y-64619565D01*
X99350220Y-63800871D01*
X99350219Y-63800870D01*
X99268583Y-63741557D01*
X99044184Y-63627219D01*
X98804669Y-63549397D01*
X98555928Y-63510000D01*
X98304072Y-63510000D01*
X98055330Y-63549397D01*
X97815815Y-63627219D01*
X97591413Y-63741559D01*
X97509779Y-63800869D01*
X97509778Y-63800870D01*
X98328474Y-64619565D01*
X98237007Y-64644075D01*
X98122993Y-64709901D01*
X98029901Y-64802993D01*
X97964075Y-64917007D01*
X97939565Y-65008473D01*
X97120870Y-64189778D01*
X97120869Y-64189779D01*
X97061559Y-64271413D01*
X96947219Y-64495815D01*
X96869397Y-64735330D01*
X96830000Y-64984071D01*
X87112453Y-64984071D01*
X87107255Y-63624972D01*
X87126683Y-63557860D01*
X87179312Y-63511903D01*
X87231254Y-63500500D01*
X90065890Y-63500500D01*
X90065892Y-63500500D01*
X90193186Y-63466392D01*
X90307314Y-63400500D01*
X90400500Y-63307314D01*
X90466392Y-63193186D01*
X90500500Y-63065892D01*
X90500500Y-60624500D01*
X90520185Y-60557461D01*
X90572989Y-60511706D01*
X90624500Y-60500500D01*
X128375500Y-60500500D01*
X128442539Y-60520185D01*
G37*
%TD.AperFunction*%
%TD*%
M02*
