%TF.GenerationSoftware,KiCad,Pcbnew,9.0.7*%
%TF.CreationDate,2026-07-14T12:15:31-05:00*%
%TF.ProjectId,PCB60hz_15,50434236-3068-47a5-9f31-352e6b696361,rev?*%
%TF.SameCoordinates,Original*%
%TF.FileFunction,Paste,Top*%
%TF.FilePolarity,Positive*%
%FSLAX46Y46*%
G04 Gerber Fmt 4.6, Leading zero omitted, Abs format (unit mm)*
G04 Created by KiCad (PCBNEW 9.0.7) date 2026-07-14 12:15:31*
%MOMM*%
%LPD*%
G01*
G04 APERTURE LIST*
G04 Aperture macros list*
%AMRoundRect*
0 Rectangle with rounded corners*
0 $1 Rounding radius*
0 $2 $3 $4 $5 $6 $7 $8 $9 X,Y pos of 4 corners*
0 Add a 4 corners polygon primitive as box body*
4,1,4,$2,$3,$4,$5,$6,$7,$8,$9,$2,$3,0*
0 Add four circle primitives for the rounded corners*
1,1,$1+$1,$2,$3*
1,1,$1+$1,$4,$5*
1,1,$1+$1,$6,$7*
1,1,$1+$1,$8,$9*
0 Add four rect primitives between the rounded corners*
20,1,$1+$1,$2,$3,$4,$5,0*
20,1,$1+$1,$4,$5,$6,$7,0*
20,1,$1+$1,$6,$7,$8,$9,0*
20,1,$1+$1,$8,$9,$2,$3,0*%
G04 Aperture macros list end*
%ADD10R,1.250000X0.600000*%
%ADD11RoundRect,0.250000X-0.650000X1.000000X-0.650000X-1.000000X0.650000X-1.000000X0.650000X1.000000X0*%
%ADD12RoundRect,0.250000X-0.337500X-0.475000X0.337500X-0.475000X0.337500X0.475000X-0.337500X0.475000X0*%
%ADD13RoundRect,0.250000X0.650000X-1.000000X0.650000X1.000000X-0.650000X1.000000X-0.650000X-1.000000X0*%
%ADD14RoundRect,0.250000X0.337500X0.475000X-0.337500X0.475000X-0.337500X-0.475000X0.337500X-0.475000X0*%
%ADD15RoundRect,0.250000X-1.075000X0.400000X-1.075000X-0.400000X1.075000X-0.400000X1.075000X0.400000X0*%
%ADD16RoundRect,0.237500X-0.250000X-0.237500X0.250000X-0.237500X0.250000X0.237500X-0.250000X0.237500X0*%
%ADD17R,3.600000X3.400000*%
%ADD18RoundRect,0.250000X1.000000X0.650000X-1.000000X0.650000X-1.000000X-0.650000X1.000000X-0.650000X0*%
%ADD19RoundRect,0.237500X-0.237500X0.250000X-0.237500X-0.250000X0.237500X-0.250000X0.237500X0.250000X0*%
G04 APERTURE END LIST*
D10*
%TO.C,IC1*%
X112750000Y-91310000D03*
X112750000Y-92260000D03*
X112750000Y-93210000D03*
X115250000Y-93210000D03*
X115250000Y-92260000D03*
X115250000Y-91310000D03*
%TD*%
D11*
%TO.C,D4*%
X94890000Y-78180000D03*
X94890000Y-82180000D03*
%TD*%
D12*
%TO.C,C8*%
X121815000Y-83980000D03*
X123890000Y-83980000D03*
%TD*%
D13*
%TO.C,D2*%
X94850000Y-89630000D03*
X94850000Y-85630000D03*
%TD*%
D14*
%TO.C,C7*%
X124155000Y-66270000D03*
X122080000Y-66270000D03*
%TD*%
D15*
%TO.C,R4*%
X100140000Y-82430000D03*
X100140000Y-85530000D03*
%TD*%
D12*
%TO.C,C9*%
X106678541Y-84530000D03*
X108753541Y-84530000D03*
%TD*%
D16*
%TO.C,R1*%
X118995000Y-92370000D03*
X120820000Y-92370000D03*
%TD*%
D17*
%TO.C,L1*%
X106212379Y-100150000D03*
X115412379Y-100150000D03*
%TD*%
D18*
%TO.C,D1*%
X102550000Y-78280000D03*
X98550000Y-78280000D03*
%TD*%
D14*
%TO.C,C6*%
X110940000Y-73160000D03*
X108865000Y-73160000D03*
%TD*%
%TO.C,C5*%
X115037500Y-87930000D03*
X112962500Y-87930000D03*
%TD*%
D12*
%TO.C,C10*%
X106607379Y-89490000D03*
X108682379Y-89490000D03*
%TD*%
%TO.C,C4*%
X118915000Y-89160000D03*
X120990000Y-89160000D03*
%TD*%
D16*
%TO.C,R2*%
X122475000Y-92390000D03*
X124300000Y-92390000D03*
%TD*%
D18*
%TO.C,D3*%
X102510000Y-89440000D03*
X98510000Y-89440000D03*
%TD*%
D19*
%TO.C,R3*%
X125210000Y-88885000D03*
X125210000Y-90710000D03*
%TD*%
M02*
